<svg width="24" height="24" viewBox="0 0 24 24" fill="none" xmlns="http://www.w3.org/2000/svg">
<path d="M12.0053 21.7511C8.29735 21.7515 4.8781 19.6267 3.24047 16.2825C1.58335 12.8974 2.0851 8.67562 4.4896 5.77724C6.89147 2.88187 10.7963 1.61849 14.4368 2.55862C14.6227 2.61438 14.7798 2.73995 14.8751 2.90901C14.9704 3.07806 14.9966 3.27745 14.9481 3.46535C14.8996 3.65326 14.7802 3.81509 14.615 3.91689C14.4497 4.01868 14.2515 4.05255 14.0618 4.01137C10.9823 3.21599 7.6771 4.28474 5.64422 6.73537C3.61022 9.18749 3.18572 12.7594 4.58785 15.6236C5.98472 18.4766 9.0661 20.3351 12.2288 20.2489C15.3912 20.1626 18.2611 18.2392 19.5402 15.3491C20.292 13.6463 20.4494 11.7402 19.9872 9.93712C19.9425 9.7462 19.9743 9.54537 20.0758 9.37759C20.1773 9.20982 20.3404 9.08844 20.5303 9.03943C20.7201 8.99042 20.9216 9.01768 21.0917 9.11536C21.2617 9.21305 21.3867 9.37341 21.44 9.56212C21.9859 11.6924 21.8001 13.9443 20.9124 15.9562C19.4004 19.3725 16.0077 21.6461 12.2701 21.7481C12.1816 21.75 12.0931 21.7511 12.0053 21.7511Z" fill="url(#paint0_linear_213_1304)"/>
<path d="M11.9998 14.34C11.8515 14.34 11.7066 14.296 11.5832 14.2135C11.4599 14.1311 11.3638 14.014 11.3071 13.877C11.2503 13.74 11.2355 13.5892 11.2644 13.4437C11.2933 13.2983 11.3647 13.1646 11.4696 13.0597L20.4696 4.05975C20.5388 3.98811 20.6215 3.93098 20.713 3.89167C20.8045 3.85236 20.903 3.83167 21.0025 3.83081C21.1021 3.82994 21.2009 3.84892 21.2931 3.88663C21.3852 3.92434 21.469 3.98003 21.5394 4.05045C21.6098 4.12087 21.6655 4.20461 21.7032 4.29678C21.7409 4.38895 21.7599 4.48771 21.759 4.5873C21.7582 4.68688 21.7375 4.7853 21.6982 4.8768C21.6589 4.9683 21.6017 5.05106 21.5301 5.12025L12.5301 14.1202C12.3838 14.2665 12.1918 14.34 11.9998 14.34Z" fill="url(#paint1_linear_213_1304)"/>
<path d="M11.9997 14.34C11.9012 14.3402 11.8036 14.3209 11.7126 14.2831C11.6216 14.2454 11.5389 14.1901 11.4694 14.1203L8.28756 10.9384C8.21593 10.8692 8.15879 10.7864 8.11948 10.6949C8.08018 10.6034 8.05949 10.505 8.05862 10.4054C8.05776 10.3058 8.07673 10.2071 8.11444 10.1149C8.15215 10.0227 8.20784 9.939 8.27826 9.86858C8.34868 9.79816 8.43242 9.74247 8.52459 9.70476C8.61677 9.66705 8.71553 9.64807 8.81511 9.64894C8.9147 9.6498 9.01311 9.67049 9.10461 9.7098C9.19612 9.74911 9.27887 9.80624 9.34806 9.87788L12.5299 13.0598C12.6348 13.1646 12.7062 13.2983 12.7351 13.4437C12.764 13.5892 12.7492 13.74 12.6924 13.877C12.6357 14.014 12.5396 14.1311 12.4163 14.2136C12.293 14.296 12.148 14.34 11.9997 14.34Z" fill="url(#paint2_linear_213_1304)"/>
<defs>
<linearGradient id="paint0_linear_213_1304" x1="12.0092" y1="2.252" x2="12.0092" y2="21.7511" gradientUnits="userSpaceOnUse">
<stop stop-color="#704BA5"/>
<stop offset="1" stop-color="#517ACB"/>
</linearGradient>
<linearGradient id="paint1_linear_213_1304" x1="16.5045" y1="3.83078" x2="16.5045" y2="14.34" gradientUnits="userSpaceOnUse">
<stop stop-color="#704BA5"/>
<stop offset="1" stop-color="#517ACB"/>
</linearGradient>
<linearGradient id="paint2_linear_213_1304" x1="10.4041" y1="9.64891" x2="10.4041" y2="14.34" gradientUnits="userSpaceOnUse">
<stop stop-color="#704BA5"/>
<stop offset="1" stop-color="#517ACB"/>
</linearGradient>
</defs>
</svg>
