<svg width="21" height="20" viewBox="0 0 21 20" fill="none" xmlns="http://www.w3.org/2000/svg">
<g id="Frame" clip-path="url(#clip0_715_3235)">
<g id="Group">
<path id="Vector" d="M5.81934 1.24524V-0.00476074H1.44434C1.09914 -0.00476074 0.819336 0.275044 0.819336 0.620239V4.99524H2.06934V2.12649L7.87559 7.93274L8.75684 7.05149L2.95059 1.24524H5.81934ZM20.1943 -0.00476074H15.8193V1.24524H18.6881L12.8818 7.05149L13.7631 7.93274L19.5693 2.12649V4.99524H20.8193V0.620239C20.8193 0.275044 20.5395 -0.00476074 20.1943 -0.00476074ZM19.5693 17.864L13.7631 12.0577L12.8818 12.939L18.6881 18.7452H15.8193V19.9952H20.1943C20.5395 19.9952 20.8193 19.7154 20.8193 19.3702V14.9952H19.5693V17.864ZM7.87559 12.0515L2.06934 17.864V14.9952H0.819336V19.3702C0.819336 19.7154 1.09914 19.9952 1.44434 19.9952H5.81934V18.7452H2.95059L8.75684 12.939L7.87559 12.0515Z" fill="white"/>
</g>
</g>
<defs>
<clipPath id="clip0_715_3235">
<rect width="20" height="20" fill="white" transform="translate(0.820312 -0.00463867)"/>
</clipPath>
</defs>
</svg>
