<svg width="60" height="60" viewBox="0 0 60 60" fill="none" xmlns="http://www.w3.org/2000/svg">
<g clip-path="url(#clip0_101_807)">
<path d="M51.6677 48.6478C51.5634 48.6285 21.2236 48.6171 21.2236 48.6171C20.0892 48.6171 19.1663 47.6943 19.1663 46.5599C19.1663 45.4255 20.0892 44.5028 21.2236 44.5028H51.1818C52.1522 44.5028 52.9389 43.716 52.9389 42.7456C52.9389 41.7752 52.1522 40.9885 51.1818 40.9885H21.2236C18.1514 40.9885 15.6521 43.4879 15.6521 46.5599C15.6521 47.9993 16.2008 49.3129 17.1001 50.3028C16.0706 51.3315 15.433 52.7522 15.433 54.3191C15.433 57.4516 17.9816 60 21.1141 60C24.2465 60 26.795 57.4516 26.795 54.3191C26.7956 53.5679 26.6465 52.8242 26.3563 52.1314H46.1041C45.8139 52.8242 45.6647 53.5679 45.6654 54.3191C45.6654 57.4516 48.2138 60 51.3463 60C54.4788 60 57.0272 57.4516 57.0272 54.3191C57.0272 51.2945 54.6512 48.8151 51.6677 48.6478ZM59.6243 15.0348C59.4602 14.8216 59.2493 14.6489 59.0078 14.5301C58.7664 14.4113 58.5009 14.3495 58.2319 14.3495H15.4319L11.7254 1.27778C11.6211 0.909845 11.3995 0.585995 11.0945 0.355386C10.7894 0.124777 10.4174 1.56799e-06 10.0349 0L1.76884 0C0.798441 0 0.0117188 0.786722 0.0117188 1.75712C0.0117188 2.72752 0.798441 3.51425 1.76884 3.51425H8.7069L18.0598 38.0435C19.072 37.6662 20.1435 37.4734 21.2237 37.4742H51.1818C52.2418 37.4731 53.2772 37.7934 54.1514 38.393L59.9305 16.5562C60.0701 16.0291 59.9569 15.4669 59.6243 15.0348ZM41.4624 28.3718H37.9249V31.9092C37.9249 32.8796 37.1382 33.6664 36.1678 33.6664C35.1974 33.6664 34.4107 32.8796 34.4107 31.9092V28.3718H30.8732C29.9028 28.3718 29.1161 27.5851 29.1161 26.6147C29.1161 25.6443 29.9028 24.8575 30.8732 24.8575H34.4107V21.3201C34.4107 20.3497 35.1974 19.563 36.1678 19.563C37.1382 19.563 37.9249 20.3497 37.9249 21.3201V24.8575H41.4624C42.4328 24.8575 43.2195 25.6443 43.2195 26.6147C43.2195 27.5851 42.4328 28.3718 41.4624 28.3718Z" fill=""/>
</g>
<defs>
<linearGradient id="paint0_linear_101_807" x1="30.0004" y1="0" x2="30.0004" y2="60" gradientUnits="userSpaceOnUse">
<stop stop-color="#D5DAE1"/>
<stop offset="1" stop-color="#D5DAE1"/>
</linearGradient>
<clipPath id="clip0_101_807">
<rect width="60" height="60" fill="white"/>
</clipPath>
</defs>
</svg>
