<svg width="60" height="60" viewBox="0 0 60 60" fill="none" xmlns="http://www.w3.org/2000/svg">
<path d="M58.8268 15.0416L30.5846 5.077C30.2062 4.94341 29.7934 4.94341 29.415 5.077L1.17276 15.0416C0.830167 15.1625 0.533457 15.3866 0.323445 15.6831C0.113434 15.9796 0.000438088 16.3338 1.27127e-06 16.6971C-0.000435546 17.0605 0.111708 17.415 0.321006 17.712C0.530304 18.0089 0.826475 18.2338 1.16878 18.3555L29.411 28.3958C29.7918 28.5312 30.2077 28.5312 30.5885 28.3958L58.8307 18.3555C59.173 18.2338 59.4693 18.009 59.6786 17.7121C59.888 17.4151 60.0001 17.0605 59.9997 16.6972C59.9993 16.3338 59.8863 15.9795 59.6762 15.6831C59.4662 15.3866 59.1694 15.1625 58.8268 15.0416ZM55.7778 38.5049V23.172L52.2622 24.4218V38.5049C51.2033 39.1143 50.4897 40.2563 50.4897 41.5659C50.4897 42.8754 51.2033 44.0175 52.2622 44.627V53.2656C52.2622 54.2363 53.0492 55.0234 54.02 55.0234C54.9908 55.0234 55.7778 54.2363 55.7778 53.2656V44.6271C56.8367 44.0177 57.5503 42.8755 57.5503 41.566C57.5503 40.2565 56.8368 39.1143 55.7778 38.5049Z" fill=""/>
<path d="M29.9988 32.013C29.3954 32.013 28.8011 31.9104 28.2324 31.7083L12.3555 26.064V33.7993C12.3555 35.6917 14.3297 37.2922 18.2234 38.5559C21.6173 39.6575 25.7992 40.2642 29.9988 40.2642C34.1983 40.2642 38.3801 39.6575 41.7741 38.5559C45.6678 37.2922 47.642 35.6917 47.642 33.7993V26.064L31.7652 31.7083C31.1982 31.9102 30.6007 32.0132 29.9988 32.013Z" fill="url(#paint1_linear_101_680)"/>
<defs>
<linearGradient id="paint0_linear_101_680" x1="29.9999" y1="4.97681" x2="29.9999" y2="55.0234" gradientUnits="userSpaceOnUse">
<stop stop-color="#D5DAE1"/>
<stop offset="1" stop-color="#D5DAE1"/>
</linearGradient>
<linearGradient id="paint1_linear_101_680" x1="29.9988" y1="26.064" x2="29.9988" y2="40.2642" gradientUnits="userSpaceOnUse">
<stop stop-color="#D5DAE1"/>
<stop offset="1" stop-color="#D5DAE1"/>
</linearGradient>
</defs>
</svg>
