<svg width="60" height="60" viewBox="0 0 60 60" fill="none" xmlns="http://www.w3.org/2000/svg">
<path d="M49.3062 18.105C51.4568 15.8803 53.9787 11.3119 51.38 8.61845C50.9568 8.19126 50.4379 7.87113 49.8663 7.6846C49.2946 7.49808 48.6868 7.45055 48.0931 7.54595C45.7442 7.90663 43.5724 9.00947 41.8953 10.6931L36.665 15.9235L33.5337 15.2419C34.8847 13.1728 32.0909 10.86 30.3106 12.6131L28.729 14.1947L25.0184 13.3866C27.3303 11.4544 24.5759 8.21158 22.3203 10.1728L20.164 12.3291L12.484 10.6566C12.1875 10.5916 11.8793 10.6023 11.588 10.6879C11.2966 10.7734 11.0315 10.9309 10.8172 11.146L9.27123 12.6919C8.42091 13.4953 8.6356 15.0235 9.67623 15.5597L27.7128 25.5235L18.5825 35.5135L9.30966 36.0066L7.87341 37.4419C7.21998 38.0597 7.47216 39.2503 8.32341 39.5438L17.1012 42.8963L20.4547 51.675C20.7509 52.5234 21.9359 52.7813 22.5575 52.1231L23.9918 50.6888L24.485 41.415L34.475 32.2847L44.4322 50.3147C44.9684 51.3553 46.4956 51.571 47.3 50.7206C48.1653 49.7231 49.6662 48.916 49.3362 47.5088L47.6665 39.8363L49.8256 37.6781C50.2203 37.2834 50.4378 36.7584 50.4378 36.1997C50.4293 34.1541 47.8362 33.3806 46.61 34.981L45.8028 31.2703L47.3853 29.6878C49.1365 27.9 46.85 25.1522 44.7575 26.4694L44.075 23.3335L49.3062 18.105Z" fill=""/>
<defs>
<linearGradient id="paint0_linear_101_752" x1="29.9943" y1="7.49805" x2="29.9943" y2="52.4945" gradientUnits="userSpaceOnUse">
<stop stop-color="#D5DAE1"/>
<stop offset="1" stop-color="#D5DAE1"/>
</linearGradient>
</defs>
</svg>
