<svg width="60" height="60" viewBox="0 0 60 60" fill="none" xmlns="http://www.w3.org/2000/svg">
<path d="M37.9947 40.5936C37.9947 36.186 34.4079 32.6004 30.0003 32.6004C25.5921 32.6004 22.0059 36.1866 22.0059 40.5936C22.0059 45.0018 25.5921 48.588 30.0003 48.588C34.4085 48.588 37.9947 45.0018 37.9947 40.5936ZM38.9583 35.3472L44.2743 33.444C42.8502 30.6181 40.624 28.2751 37.8747 26.7084L35.2041 31.6098C36.7553 32.5129 38.0481 33.8 38.9583 35.3472Z" fill="url(#paint0_linear_101_764)"/>
<path d="M45.1879 35.6651L39.9355 37.5455C40.2319 38.5097 40.3939 39.5333 40.3939 40.5935C40.3939 45.0425 37.5793 48.8363 33.6415 50.3165L35.3167 55.6511C41.5159 53.4551 45.9697 47.5367 45.9697 40.5941C45.9697 38.8745 45.6931 37.2185 45.1879 35.6651ZM29.9995 56.5643C31.0059 56.5636 32.01 56.4676 32.9983 56.2775L31.3081 50.8961C30.8785 50.9501 30.4441 50.9873 29.9995 50.9873C24.2677 50.9873 19.6051 46.3247 19.6051 40.5929C19.6051 34.8617 24.2677 30.1997 29.9995 30.1997C31.0411 30.1997 32.0467 30.3581 32.9959 30.6443L35.7019 25.6793C33.882 24.9804 31.949 24.6224 29.9995 24.6233C21.1933 24.6233 14.0293 31.7873 14.0293 40.5935C14.0293 49.3997 21.1933 56.5643 29.9995 56.5643Z" fill="url(#paint1_linear_101_764)"/>
<path d="M57.6004 46.0919V11.7155H2.40039V46.0919H12.4714C11.9126 44.3129 11.6289 42.4589 11.6302 40.5941C11.6302 30.4643 19.8712 22.2239 30.0004 22.2239C32.815 22.2239 35.4832 22.8617 37.87 23.9987C37.9012 24.0126 37.933 24.0215 37.9636 24.0383C37.9708 24.0419 37.9762 24.0479 37.9828 24.0515C42.0736 26.0376 45.2883 29.4625 47.0116 33.6707C47.02 33.6905 47.0314 33.7085 47.0392 33.7289C47.0428 33.7397 47.044 33.7499 47.047 33.7607C47.9223 35.9328 48.3717 38.2529 48.3706 40.5947C48.3706 42.5087 48.0754 44.3561 47.5294 46.0925L57.6004 46.0919ZM11.5816 22.1885H6.77079C6.45253 22.1885 6.14731 22.0621 5.92226 21.8371C5.69722 21.612 5.57079 21.3068 5.57079 20.9885C5.57079 20.6703 5.69722 20.3651 5.92226 20.14C6.14731 19.915 6.45253 19.7885 6.77079 19.7885H11.5816C11.8998 19.7885 12.2051 19.915 12.4301 20.14C12.6552 20.3651 12.7816 20.6703 12.7816 20.9885C12.7816 21.3068 12.6552 21.612 12.4301 21.8371C12.2051 22.0621 11.8998 22.1885 11.5816 22.1885ZM15.1132 17.3177H6.77139C6.45313 17.3177 6.14791 17.1913 5.92286 16.9663C5.69782 16.7412 5.57139 16.436 5.57139 16.1177C5.57139 15.7995 5.69782 15.4943 5.92286 15.2692C6.14791 15.0442 6.45313 14.9177 6.77139 14.9177H15.1138C15.432 14.9178 15.7372 15.0443 15.9622 15.2694C16.1872 15.4945 16.3136 15.7998 16.3135 16.118C16.3134 16.4363 16.1869 16.7415 15.9618 16.9665C15.7367 17.1915 15.4314 17.3178 15.1132 17.3177ZM44.8876 17.3177C44.5693 17.3177 44.2641 17.1913 44.0391 16.9663C43.814 16.7412 43.6876 16.436 43.6876 16.1177C43.6876 15.7995 43.814 15.4943 44.0391 15.2692C44.2641 15.0442 44.5693 14.9177 44.8876 14.9177H53.23C53.5482 14.9177 53.8535 15.0442 54.0785 15.2692C54.3036 15.4943 54.43 15.7995 54.43 16.1177C54.43 16.436 54.3036 16.7412 54.0785 16.9663C53.8535 17.1913 53.5482 17.3177 53.23 17.3177H44.8876ZM47.2192 20.9885C47.2192 20.6703 47.3456 20.3651 47.5707 20.14C47.7957 19.915 48.1009 19.7885 48.4192 19.7885H53.23C53.5482 19.7885 53.8535 19.915 54.0785 20.14C54.3036 20.3651 54.43 20.6703 54.43 20.9885C54.43 21.3068 54.3036 21.612 54.0785 21.8371C53.8535 22.0621 53.5482 22.1885 53.23 22.1885H48.4192C48.1009 22.1885 47.7957 22.0621 47.5707 21.8371C47.3456 21.612 47.2192 21.3068 47.2192 20.9885ZM2.40039 3.43555V9.31615H57.6004V3.43555H2.40039ZM18.127 7.57555H6.19299C5.87473 7.57555 5.56951 7.44912 5.34446 7.22408C5.11942 6.99903 4.99299 6.69381 4.99299 6.37555C4.99299 6.05729 5.11942 5.75206 5.34446 5.52702C5.56951 5.30198 5.87473 5.17555 6.19299 5.17555H18.1276C18.4458 5.17563 18.751 5.30213 18.976 5.52723C19.201 5.75233 19.3274 6.05759 19.3273 6.37585C19.3272 6.69411 19.2007 6.9993 18.9756 7.22429C18.7505 7.44928 18.4452 7.57563 18.127 7.57555Z" fill=""/>
<defs>
<linearGradient id="paint0_linear_101_764" x1="33.1401" y1="26.7084" x2="33.1401" y2="48.588" gradientUnits="userSpaceOnUse">
<stop stop-color="#D5DAE1"/>
<stop offset="1" stop-color="#D5DAE1"/>
</linearGradient>
<linearGradient id="paint1_linear_101_764" x1="29.9995" y1="24.6233" x2="29.9995" y2="56.5643" gradientUnits="userSpaceOnUse">
<stop stop-color="#D5DAE1"/>
<stop offset="1" stop-color="#D5DAE1"/>
</linearGradient>
<linearGradient id="paint2_linear_101_764" x1="30.0004" y1="3.43555" x2="30.0004" y2="46.0925" gradientUnits="userSpaceOnUse">
<stop stop-color="#D5DAE1"/>
<stop offset="1" stop-color="#D5DAE1"/>
</linearGradient>
</defs>
</svg>
