<svg width="61" height="60" viewBox="0 0 61 60" fill="none" xmlns="http://www.w3.org/2000/svg">
<path d="M2.99705 13.9863H16.9843C17.7791 13.9863 18.5414 14.3021 19.1035 14.8641C19.6655 15.4262 19.9813 16.1885 19.9813 16.9834V27.9735C19.9813 28.7684 19.6655 29.5307 19.1035 30.0928C18.5414 30.6548 17.7791 30.9706 16.9843 30.9706H2.99805C2.60438 30.9707 2.21455 30.8933 1.85082 30.7427C1.48708 30.5922 1.15658 30.3714 0.878168 30.0931C0.59976 29.8148 0.37891 29.4844 0.228232 29.1207C0.077554 28.757 -2.18701e-08 28.3672 0 27.9735V16.9844C0 16.1895 0.315759 15.4272 0.877815 14.8651C1.43987 14.3031 2.20218 13.9863 2.99705 13.9863Z" fill="url(#paint0_linear_101_688)"/>
<path d="M31.9697 9.99015C34.7284 9.99015 36.9648 7.75378 36.9648 4.99508C36.9648 2.23637 34.7284 0 31.9697 0C29.211 0 26.9746 2.23637 26.9746 4.99508C26.9746 7.75378 29.211 9.99015 31.9697 9.99015Z" fill="url(#paint1_linear_101_688)"/>
<path d="M10.9922 33.8186C10.9924 35.3699 11.6023 36.8589 12.6905 37.9645H28.9315V33.8136C28.9315 33.5497 28.8267 33.2966 28.6401 33.11C28.4535 32.9234 28.2004 32.8186 27.9365 32.8186H11.9862C11.7219 32.8199 11.469 32.9259 11.2827 33.1133C11.0964 33.3007 10.9919 33.5544 10.9922 33.8186Z" fill="url(#paint2_linear_101_688)"/>
<path d="M60.6766 49.3103C60.1896 47.5091 59.0971 45.9305 57.5831 44.8399C56.069 43.7494 54.2256 43.2135 52.3628 43.3222C52.5193 42.7386 52.5999 42.1372 52.6026 41.533C52.5835 40.575 52.3322 39.636 51.8702 38.7965C51.4082 37.9571 50.7493 37.2424 49.9502 36.7137C47.8053 35.2901 46.2009 31.6707 45.9581 27.8645H47.8722C48.6632 27.8647 49.4221 27.5512 49.9822 26.9927C50.5424 26.4343 50.8582 25.6764 50.8603 24.8854V22.9013C50.8582 22.1103 50.5424 21.3525 49.9822 20.794C49.4221 20.2355 48.6632 19.922 47.8722 19.9223H41.039C35.2627 18.2589 33.5244 16.3428 32.4864 15.1949C32.4653 15.1718 32.4443 15.1484 32.4235 15.125C32.5271 14.3591 32.3884 13.5799 32.0269 12.8968C31.6653 12.2137 31.099 11.6608 30.4074 11.3158C29.9137 11.08 29.373 10.9587 28.8259 10.961C28.2787 10.9632 27.7391 11.0889 27.2472 11.3287C26.7554 11.5684 26.324 11.9161 25.9852 12.3458C25.6464 12.7755 25.4089 13.2761 25.2905 13.8103L22.4243 27.5068C22.34 27.9136 22.3416 28.3335 22.4292 28.7396C22.5167 29.1457 22.6881 29.529 22.9325 29.8649C23.1769 30.2009 23.4889 30.482 23.8483 30.6902C24.2078 30.8985 24.6068 31.0293 25.0198 31.0743L29.9319 31.6178C30.185 31.6448 30.4181 31.7679 30.583 31.9618C30.7479 32.1558 30.832 32.4056 30.818 32.6597L30.0448 45.7528C29.2414 45.0507 28.6701 44.1211 28.4066 43.0871C28.1431 42.0532 28.1998 40.9636 28.5693 39.9625H13.2993C11.6889 42.6309 9.11044 47.634 10.1534 50.8878C10.3479 51.5004 10.6859 52.0577 11.1392 52.5133C11.5926 52.9689 12.1482 53.3097 12.7598 53.5072C13.2091 53.6443 13.6803 53.6951 14.1485 53.657C14.2628 55.272 14.9851 56.7837 16.1697 57.8874C17.3542 58.991 18.9131 59.6047 20.5322 59.6047C22.1512 59.6047 23.7101 58.991 24.8947 57.8874C26.0793 56.7837 26.8015 55.272 26.9159 53.657H44.039C44.2054 53.6479 44.3684 53.6058 44.5184 53.5333C44.6684 53.4607 44.8026 53.3592 44.9132 53.2344C45.0345 53.8245 45.2316 54.3963 45.4996 54.9358C45.5746 55.0929 45.6895 55.2275 45.8329 55.3263C45.9762 55.425 46.143 55.4845 46.3165 55.4986C46.49 55.5128 46.6642 55.4812 46.8217 55.4069C46.9791 55.3327 47.1144 55.2185 47.2139 55.0756C47.3308 54.9078 47.4566 54.746 47.5895 54.5851C47.7231 55.4471 48.0316 56.2727 48.4961 57.011C48.9606 57.7493 49.5713 58.3848 50.2905 58.8783C51.0098 59.3718 51.8224 59.7129 52.6784 59.8806C53.5344 60.0483 54.4157 60.0391 55.268 59.8536C56.1203 59.668 56.9256 59.31 57.6344 58.8016C58.3432 58.2932 58.9405 57.6451 59.3895 56.8972C59.8385 56.1494 60.1297 55.3176 60.2452 54.453C60.3607 53.5884 60.2981 52.7093 60.0612 51.8698C60.3189 51.8418 60.5552 51.7134 60.7188 51.5123C60.8825 51.3113 60.9603 51.0539 60.9354 50.7959C60.8972 50.2934 60.8113 49.7959 60.6766 49.3103ZM20.5322 57.6201C19.4406 57.6201 18.388 57.2146 17.5785 56.4823C16.769 55.75 16.2605 54.7431 16.1515 53.657H24.9129C24.8039 54.7431 24.2953 55.75 23.4858 56.4823C22.6764 57.2146 21.6237 57.6201 20.5322 57.6201ZM39.9001 46.7079H36.0189L37.7352 30.4839C37.8037 29.8268 37.6519 29.1656 37.3036 28.6043C36.9553 28.0429 36.4303 27.6133 35.8111 27.3829L30.9159 25.5557C30.6909 25.4721 30.5039 25.3097 30.3896 25.0985C30.2753 24.8874 30.2415 24.642 30.2946 24.4079L31.0388 21.196C33.5856 23.2269 36.6604 24.4864 39.9001 24.8254V46.7079ZM54.4717 57.9148C53.8091 58.0019 53.1353 57.9371 52.5013 57.7254C51.8674 57.5138 51.2899 57.1607 50.8124 56.693C50.335 56.2253 49.9702 55.6552 49.7455 55.0257C49.5208 54.3962 49.4422 53.7239 49.5156 53.0596L49.8193 52.68C52.1071 51.2617 54.8332 50.7255 57.4878 51.1715L57.7235 51.3543C58.0863 51.9818 58.2882 52.6892 58.3114 53.4136C58.3346 54.138 58.1782 54.8569 57.8564 55.5063C57.5345 56.1557 57.057 56.7154 56.4665 57.1356C55.876 57.5558 55.1907 57.8235 54.4717 57.9148Z" fill=""/>
<defs>
<linearGradient id="paint0_linear_101_688" x1="9.99065" y1="13.9863" x2="9.99065" y2="30.9706" gradientUnits="userSpaceOnUse">
<stop stop-color="#D5DAE1"/>
<stop offset="1" stop-color="#D5DAE1"/>
</linearGradient>
<linearGradient id="paint1_linear_101_688" x1="31.9697" y1="0" x2="31.9697" y2="9.99015" gradientUnits="userSpaceOnUse">
<stop stop-color="#D5DAE1"/>
<stop offset="1" stop-color="#D5DAE1"/>
</linearGradient>
<linearGradient id="paint2_linear_101_688" x1="19.9618" y1="32.8186" x2="19.9618" y2="37.9645" gradientUnits="userSpaceOnUse">
<stop stop-color="#D5DAE1"/>
<stop offset="1" stop-color="#D5DAE1"/>
</linearGradient>
<linearGradient id="paint3_linear_101_688" x1="35.426" y1="10.9609" x2="35.426" y2="59.9999" gradientUnits="userSpaceOnUse">
<stop stop-color="#D5DAE1"/>
<stop offset="1" stop-color="#D5DAE1"/>
</linearGradient>
</defs>
</svg>
