<svg width="60" height="60" viewBox="0 0 60 60" fill="none" xmlns="http://www.w3.org/2000/svg">
<g clip-path="url(#clip0_101_724)">
<path d="M53.2305 35.3056V0H44.2515V32.3389C45.8814 34.2208 47.1508 36.4528 47.9228 38.8206H59.9943V35.3056H53.2305ZM30.0001 29.3289C21.544 29.3289 14.6645 36.2084 14.6645 44.6644C14.6645 53.1204 21.544 60 30.0001 60C38.4561 60 45.3356 53.1204 45.3356 44.6644C45.3356 36.2084 38.4561 29.3289 30.0001 29.3289ZM30.0001 42.9069C33.2715 42.9069 35.9331 45.5685 35.9331 48.8399C35.9331 51.4998 34.1737 53.7564 31.7575 54.5072V57.1863H28.2426V54.5072C25.8265 53.7564 24.0671 51.4999 24.0671 48.84H27.582C27.582 50.1734 28.6667 51.2581 30.0001 51.2581C31.3334 51.2581 32.4181 50.1734 32.4181 48.84C32.4181 47.5067 31.3334 46.4219 30.0001 46.4219C26.7286 46.4219 24.0671 43.7604 24.0671 40.4889C24.0671 37.829 25.8264 35.5725 28.2426 34.8217V32.1427H31.7575V34.8217C34.1736 35.5725 35.9331 37.829 35.9331 40.4889H32.4181C32.4181 39.1556 31.3334 38.0708 30.0001 38.0708C28.6667 38.0708 27.582 39.1556 27.582 40.4889C27.582 41.8222 28.6667 42.9069 30.0001 42.9069ZM15.7487 32.3389V23.2924H6.76979V35.3056H0.00585938V38.8206H12.0774C12.8496 36.4521 14.1179 34.2219 15.7487 32.3389ZM40.7366 7.76416H31.7575V25.8967C35.0726 26.2047 38.141 27.3745 40.7366 29.1796V7.76416ZM28.2426 15.5282H19.2635V29.1794C21.8591 27.3743 24.9275 26.2045 28.2426 25.8966V15.5282Z" fill=""/>
</g>
<defs>
<linearGradient id="paint0_linear_101_724" x1="30.0001" y1="0" x2="30.0001" y2="60" gradientUnits="userSpaceOnUse">
<stop stop-color="#D5DAE1"/>
<stop offset="1" stop-color="#D5DAE1"/>
</linearGradient>
<clipPath id="clip0_101_724">
<rect width="60" height="60" fill="white"/>
</clipPath>
</defs>
</svg>
