<svg width="60" height="60" viewBox="0 0 60 60" fill="none" xmlns="http://www.w3.org/2000/svg">
<path d="M57.5004 32.4994C58.1256 32.4994 58.7508 31.8742 58.7508 31.249V23.749C58.7508 21.6238 57.126 19.999 55.0008 19.999H45V54.9994H54.9996C57.1248 54.9994 58.7496 53.3746 58.7496 51.2494V43.7494C58.749 43.418 58.617 43.1003 58.3827 42.866C58.1483 42.6316 57.8306 42.4997 57.4992 42.499C56.1866 42.4787 54.9346 41.943 54.0136 41.0075C53.0925 40.0721 52.5763 38.812 52.5763 37.4992C52.5763 36.1865 53.0925 34.9263 54.0136 33.9909C54.9346 33.0555 56.1866 32.5198 57.4992 32.4994H57.5004Z" fill="url(#paint0_linear_101_827)"/>
<path d="M56.625 16.2503C57.2502 16.0007 57.6246 15.2507 57.375 14.6255L54.8742 7.49988C54.249 5.49948 51.9942 4.49988 50.1246 5.12508L14.625 17.3747H54.6246C55.2174 16.8813 55.8954 16.5003 56.625 16.2503Z" fill="url(#paint1_linear_101_827)"/>
<path d="M1.25 23.7502V31.2502C1.25 32.0002 1.7504 32.5006 2.5004 32.5006C3.1635 32.4904 3.82202 32.6121 4.43763 32.8588C5.05323 33.1054 5.61363 33.4721 6.08618 33.9373C6.55874 34.4026 6.93402 34.9573 7.19018 35.569C7.44634 36.1807 7.57826 36.8373 7.57826 37.5004C7.57826 38.1636 7.44634 38.8202 7.19018 39.4319C6.93402 40.0436 6.55874 40.5983 6.08618 41.0635C5.61363 41.5288 5.05323 41.8955 4.43763 42.1421C3.82202 42.3888 3.1635 42.5105 2.5004 42.5002C1.7504 42.5002 1.25 43.0006 1.25 43.7506V51.2506C1.25 53.3758 2.8748 55.0006 5 55.0006H42.5V20.0002H5C2.8796 20.0002 1.25 21.625 1.25 23.7502ZM16.25 29.9998H23.75C24.5 29.9998 25.0004 30.5002 25.0004 31.2502C25.0004 32.0002 24.5 32.5006 23.75 32.5006H16.25C15.5 32.5006 14.9996 32.0002 14.9996 31.2502C14.9996 30.5002 15.5 29.9998 16.25 29.9998ZM16.25 36.2494H32.4992C33.2492 36.2494 33.7496 36.7498 33.7496 37.4998C33.7496 38.2498 33.2492 38.7502 32.4992 38.7502H16.25C15.5 38.7502 14.9996 38.2498 14.9996 37.4998C14.9996 36.7498 15.5 36.2494 16.25 36.2494ZM16.25 42.499H32.4992C33.2492 42.499 33.7496 42.9994 33.7496 43.7494C33.7496 44.4994 33.2492 44.9998 32.4992 44.9998H16.25C15.5 44.9998 14.9996 44.4994 14.9996 43.7494C14.9996 42.9994 15.5 42.5002 16.25 42.5002V42.499Z" fill=""/>
<defs>
<linearGradient id="paint0_linear_101_827" x1="51.8754" y1="19.999" x2="51.8754" y2="54.9994" gradientUnits="userSpaceOnUse">
<stop stop-color="#D5DAE1"/>
<stop offset="1" stop-color="#D5DAE1"/>
</linearGradient>
<linearGradient id="paint1_linear_101_827" x1="36.0391" y1="4.93994" x2="36.0391" y2="17.3747" gradientUnits="userSpaceOnUse">
<stop stop-color="#D5DAE1"/>
<stop offset="1" stop-color="#D5DAE1"/>
</linearGradient>
<linearGradient id="paint2_linear_101_827" x1="21.875" y1="20.0002" x2="21.875" y2="55.0006" gradientUnits="userSpaceOnUse">
<stop stop-color="#D5DAE1"/>
<stop offset="1" stop-color="#D5DAE1"/>
</linearGradient>
</defs>
</svg>
