<svg width="60" height="60" viewBox="0 0 60 60" fill="none" xmlns="http://www.w3.org/2000/svg">
<path fill-rule="evenodd" clip-rule="evenodd" d="M0.00338132 20.1458C0.276056 6.52084 16.9048 -3.52957 29.9829 7.90917C46.3647 -6.41884 67.9627 13.0388 57.0344 30.1187H42.2819L36.2177 18.8566C35.5372 17.5929 33.6985 17.6343 33.0816 18.9374L26.0072 33.872L21.154 26.2456C20.4482 25.1359 18.8319 25.1718 18.164 26.2849L15.8637 30.1187H2.93144C0.93624 27.0005 -0.0661056 23.6181 0.00338132 20.1458ZM34.7695 23.5837L39.6835 32.7097C39.8339 32.9891 40.0572 33.2226 40.3297 33.3854C40.6022 33.5481 40.9137 33.634 41.231 33.634H54.2526C54.2292 33.6585 54.2141 33.6746 54.1989 33.6908C53.9876 33.915 53.7663 34.1299 31.2214 56.5581C30.5358 57.2403 29.4276 57.2402 28.7422 56.5581C6.10459 34.0378 5.93037 33.8695 5.76574 33.6923C5.75188 33.6774 5.73808 33.6624 5.71094 33.634H16.8579C17.1614 33.634 17.4597 33.5554 17.7239 33.4058C17.988 33.2563 18.2089 33.0409 18.365 32.7807L19.7141 30.5323L24.7493 38.4445C25.4907 39.6097 27.2295 39.5013 27.8207 38.2533L34.7695 23.5837Z" fill="url(#paint0_linear_101_708)"/>
<defs>
<linearGradient id="paint0_linear_101_708" x1="29.9828" y1="23.5837" x2="29.9828" y2="57.0697" gradientUnits="userSpaceOnUse">
<stop stop-color="#D5DAE1"/>
<stop offset="1" stop-color="#D5DAE1"/>
</linearGradient>
</defs>
</svg>
