<svg width="60" height="60" viewBox="0 0 60 60" fill="none" xmlns="http://www.w3.org/2000/svg">
<g clip-path="url(#clip0_101_819)">
<path d="M30 12.8906C33.5596 12.8906 36.4453 10.005 36.4453 6.44531C36.4453 2.88566 33.5596 0 30 0C26.4404 0 23.5547 2.88566 23.5547 6.44531C23.5547 10.005 26.4404 12.8906 30 12.8906Z" fill="url(#paint0_linear_101_819)"/>
<path d="M18.4093 48.6283C16.59 50.576 14.002 51.7969 11.1328 51.7969C8.26359 51.7969 5.67563 50.576 3.85629 48.6283C1.53059 50.2111 0 52.8793 0 55.8985V58.2422C0 59.213 0.787031 60.0001 1.75781 60.0001H20.5078C21.4786 60.0001 22.2656 59.213 22.2656 58.2422V55.8985C22.2656 52.8793 20.735 50.2111 18.4093 48.6283ZM56.1437 48.6283C54.3244 50.576 51.7364 51.7969 48.8672 51.7969C45.998 51.7969 43.41 50.576 41.5907 48.6283C39.265 50.2111 37.7344 52.8793 37.7344 55.8985V58.2422C37.7344 59.213 38.5214 60.0001 39.4922 60.0001H58.2422C59.213 60.0001 60 59.213 60 58.2422V55.8985C60 52.8793 58.4694 50.2111 56.1437 48.6283ZM42.5065 42.8731C43.0041 45.9356 45.6663 48.2813 48.8672 48.2813C52.4211 48.2813 55.3125 45.3899 55.3125 41.836C55.3125 38.282 52.4211 35.3907 48.8672 35.3907C46.204 35.3907 43.9129 37.0144 42.9318 39.324L35.2683 36.944C35.1838 34.7413 33.7425 32.8813 31.7578 32.1774V24.6094H39.375C40.3458 24.6094 41.1328 23.8224 41.1328 22.8516V20.5079C41.1328 17.4886 39.6022 14.8205 37.2765 13.2377C35.4572 15.1853 32.8692 16.4063 30 16.4063C27.1308 16.4063 24.5428 15.1853 22.7235 13.2377C20.3978 14.8205 18.8672 17.4886 18.8672 20.5079V22.8516C18.8672 23.8224 19.6542 24.6094 20.625 24.6094H28.2422V32.1774C26.2575 32.8813 24.8163 34.7412 24.7317 36.944L17.0682 39.324C16.0871 37.0144 13.796 35.3907 11.1328 35.3907C7.57887 35.3907 4.6875 38.282 4.6875 41.836C4.6875 45.3899 7.57887 48.2813 11.1328 48.2813C14.3337 48.2813 16.9959 45.9356 17.4935 42.8731L25.7752 40.3012C26.7376 41.5877 28.2732 42.4219 30 42.4219C31.7268 42.4219 33.2624 41.5877 34.2248 40.3011L42.5065 42.8731Z" fill=""/>
</g>
<defs>
<linearGradient id="paint0_linear_101_819" x1="30" y1="0" x2="30" y2="12.8906" gradientUnits="userSpaceOnUse">
<stop stop-color="#D5DAE1"/>
<stop offset="1" stop-color="#D5DAE1"/>
</linearGradient>
<linearGradient id="paint1_linear_101_819" x1="30" y1="13.2377" x2="30" y2="60.0001" gradientUnits="userSpaceOnUse">
<stop stop-color="#D5DAE1"/>
<stop offset="1" stop-color="#D5DAE1"/>
</linearGradient>
<clipPath id="clip0_101_819">
<rect width="60" height="60" fill="white"/>
</clipPath>
</defs>
</svg>
