<svg width="60" height="60" viewBox="0 0 60 60" fill="none" xmlns="http://www.w3.org/2000/svg">
<g clip-path="url(#clip0_101_732)">
<path d="M59.9894 20H0V22.5C0 23.8261 0.526784 25.0979 1.46447 26.0355C2.40215 26.9732 3.67392 27.5 5 27.5H12.5C13.8261 27.5 15.0979 26.9732 16.0355 26.0355C16.9732 25.0979 17.5 23.8261 17.5 22.5C17.5 23.8261 18.0268 25.0979 18.9645 26.0355C19.9021 26.9732 21.1739 27.5 22.5 27.5H37.5C38.8261 27.5 40.0979 26.9732 41.0355 26.0355C41.9732 25.0979 42.5 23.8261 42.5 22.5C42.5 23.8261 43.0268 25.0979 43.9645 26.0355C44.9021 26.9732 46.1739 27.5 47.5 27.5H55C56.3261 27.5 57.5979 26.9732 58.5355 26.0355C59.4732 25.0979 60 23.8261 60 22.5V20H59.9894ZM59.3856 17.5L54.9038 1.8125C54.7544 1.29027 54.439 0.830891 54.0053 0.503868C53.5716 0.176845 53.0432 -3.02908e-05 52.5 3.89094e-09H41.0494L44.5494 17.5H59.3856ZM18.9506 3.89094e-09H7.5C6.95682 -3.02908e-05 6.42842 0.176845 5.99472 0.503868C5.56102 0.830891 5.24562 1.29027 5.09625 1.8125L0.614375 17.5H15.4506L18.9506 3.89094e-09ZM35.9506 3.89094e-09H24.0494L20.5494 17.5H39.4506L35.9506 3.89094e-09ZM47.5 30C45.6541 30.0015 43.8729 29.3196 42.5 28.0856C41.1271 29.3196 39.3459 30.0015 37.5 30H22.5C20.6541 30.0015 18.8729 29.3196 17.5 28.0856C16.1271 29.3196 14.3459 30.0015 12.5 30H5C4.14778 29.9982 3.30218 29.8502 2.5 29.5625V57.5C2.5 58.163 2.76339 58.7989 3.23223 59.2678C3.70107 59.7366 4.33696 60 5 60H10V37.5C10 36.837 10.2634 36.2011 10.7322 35.7322C11.2011 35.2634 11.837 35 12.5 35H25C25.663 35 26.2989 35.2634 26.7678 35.7322C27.2366 36.2011 27.5 36.837 27.5 37.5V60H55C55.663 60 56.2989 59.7366 56.7678 59.2678C57.2366 58.7989 57.5 58.163 57.5 57.5V29.5625C56.6978 29.8502 55.8522 29.9982 55 30H47.5ZM50 45C50 45.663 49.7366 46.2989 49.2678 46.7678C48.7989 47.2366 48.163 47.5 47.5 47.5H35C34.337 47.5 33.7011 47.2366 33.2322 46.7678C32.7634 46.2989 32.5 45.663 32.5 45V37.5C32.5 36.837 32.7634 36.2011 33.2322 35.7322C33.7011 35.2634 34.337 35 35 35H47.5C48.163 35 48.7989 35.2634 49.2678 35.7322C49.7366 36.2011 50 36.837 50 37.5V45Z" fill=""/>
</g>
<defs>
<linearGradient id="paint0_linear_101_732" x1="30" y1="0" x2="30" y2="60" gradientUnits="userSpaceOnUse">
<stop stop-color="#D5DAE1"/>
<stop offset="1" stop-color="#D5DAE1"/>
</linearGradient>
<clipPath id="clip0_101_732">
<rect width="60" height="60" fill="white"/>
</clipPath>
</defs>
</svg>
