<svg width="60" height="60" viewBox="0 0 60 60" fill="none" xmlns="http://www.w3.org/2000/svg">
<g clip-path="url(#clip0_101_773)">
<path d="M42.9535 6.84947C41.3449 5.33454 39.285 4.60693 37.2093 4.60693C34.8727 4.60693 32.5146 5.52888 30.7557 7.28852L29.9999 8.04425L29.2442 7.28823C27.4853 5.52931 25.1272 4.60693 22.7906 4.60693C20.7144 4.60693 18.6555 5.33454 17.0464 6.84947C13.5076 10.1815 13.4444 15.7531 16.8569 19.1656L30.0001 32.3086L43.1431 19.1656C46.5556 15.753 46.4924 10.1813 42.9535 6.84947ZM25.3932 55.3934L25.3831 42.371C25.3831 36.0818 22.1616 32.3946 17.8947 31.0058C16.7038 30.6454 15.6369 29.6985 14.6445 28.7057C12.8416 26.828 10.9142 24.26 8.41742 24.2919L8.41511 24.2824C7.60065 24.293 6.78634 24.5874 6.08023 25.2935C4.42434 26.9494 5.09336 29.4793 6.52144 30.9074L11.1603 35.5458C11.5932 35.9788 11.8364 36.5659 11.8364 37.1781C11.8364 37.7904 11.5932 38.3775 11.1603 38.8104L4.88921 32.5396C3.79932 31.4499 3.05873 29.9766 2.85688 28.4981C2.60555 26.656 3.17026 24.9384 4.44728 23.6614C5.40371 22.7049 6.57713 22.165 7.85704 22.0286L6.92037 18.2454C6.84939 4.20584 0.000577119 5.92103 0.000577119 9.22374L0 33.8709C0 35.4017 0.59299 36.8445 1.67047 37.9332C13.1384 49.5073 11.5424 45.7786 11.5424 55.3934H25.3932ZM59.9994 9.22388C59.9994 5.92132 53.1506 4.20598 53.0796 18.2457L52.143 22.0288C53.4229 22.1653 54.5963 22.7051 55.5527 23.6617C56.8297 24.9387 57.3946 26.6563 57.1431 28.4984C56.9414 29.9769 56.2008 31.4502 55.1108 32.5399L48.8397 38.8107C48.4068 38.3776 48.1634 37.7907 48.1634 37.1784C48.1634 36.5663 48.4068 35.979 48.8397 35.5461L53.4786 30.9077C54.9066 29.4796 55.5757 26.9495 53.9198 25.2938C53.2137 24.5876 52.3992 24.2933 51.5849 24.2826L51.5826 24.2922C49.0858 24.2603 47.1584 26.8283 45.3555 28.706C44.363 29.6988 43.296 30.6455 42.1053 31.0061C37.8384 32.3948 34.6169 36.0821 34.6169 42.3711L34.6068 55.3935H48.4576C48.4576 45.779 46.8616 49.5076 58.3295 37.9334C59.4072 36.8445 60 35.4017 60 33.871L59.9994 9.22388Z" fill=""/>
</g>
<defs>
<linearGradient id="paint0_linear_101_773" x1="30" y1="4.60693" x2="30" y2="55.3935" gradientUnits="userSpaceOnUse">
<stop stop-color="#D5DAE1"/>
<stop offset="1" stop-color="#D5DAE1"/>
</linearGradient>
<clipPath id="clip0_101_773">
<rect width="60" height="60" fill="white"/>
</clipPath>
</defs>
</svg>
