<svg width="1920" height="99" viewBox="0 0 1920 99" fill="none" xmlns="http://www.w3.org/2000/svg">
<g filter="url(#filter0_d_378_1707)">
<path d="M0 29.0607H526.435C536.698 28.5557 560.656 30.9799 574.385 44.717C591.546 61.8885 614.763 62.3936 624.353 61.8885C632.025 61.4845 1079.79 61.7202 1302.71 61.8885C1310.96 62.0569 1330.37 59.6663 1342.08 48.7574C1356.72 35.1213 1369.84 29.0608 1395.08 29.0608C1415.27 29.0608 1753.44 29.0608 1920 29.0608" stroke="url(#paint0_linear_378_1707)" stroke-width="3"/>
</g>
<g opacity="0.8" filter="url(#filter1_f_378_1707)">
<path d="M1 29.0681H527.161C537.419 28.5018 561.364 31.2199 575.086 46.6221C592.238 65.875 615.443 66.4413 625.028 65.875C632.696 65.422 1080.23 65.6863 1303.03 65.875C1311.27 66.0638 1330.68 63.3835 1342.38 51.1523C1357.01 35.8633 1370.13 29.0682 1395.35 29.0682C1415.53 29.0682 1753.53 29.0682 1920 29.0682" stroke="url(#paint1_linear_378_1707)" stroke-width="3"/>
</g>
<defs>
<filter id="filter0_d_378_1707" x="-31" y="0.5" width="1982" height="98" filterUnits="userSpaceOnUse" color-interpolation-filters="sRGB">
<feFlood flood-opacity="0" result="BackgroundImageFix"/>
<feColorMatrix in="SourceAlpha" type="matrix" values="0 0 0 0 0 0 0 0 0 0 0 0 0 0 0 0 0 0 127 0" result="hardAlpha"/>
<feOffset dy="4"/>
<feGaussianBlur stdDeviation="15.5"/>
<feComposite in2="hardAlpha" operator="out"/>
<feColorMatrix type="matrix" values="0 0 0 0 0.32549 0 0 0 0 0.105882 0 0 0 0 0.427451 0 0 0 0.25 0"/>
<feBlend mode="normal" in2="BackgroundImageFix" result="effect1_dropShadow_378_1707"/>
<feBlend mode="normal" in="SourceGraphic" in2="effect1_dropShadow_378_1707" result="shape"/>
</filter>
<filter id="filter1_f_378_1707" x="-14" y="12.5" width="1949" height="69.9999" filterUnits="userSpaceOnUse" color-interpolation-filters="sRGB">
<feFlood flood-opacity="0" result="BackgroundImageFix"/>
<feBlend mode="normal" in="SourceGraphic" in2="BackgroundImageFix" result="shape"/>
<feGaussianBlur stdDeviation="7.5" result="effect1_foregroundBlur_378_1707"/>
</filter>
<linearGradient id="paint0_linear_378_1707" x1="1920" y1="29" x2="1918.99" y2="92.5847" gradientUnits="userSpaceOnUse">
<stop stop-color="#496EB7"/>
<stop offset="1" stop-color="#4B1666"/>
</linearGradient>
<linearGradient id="paint1_linear_378_1707" x1="1920" y1="29" x2="1918.73" y2="100.287" gradientUnits="userSpaceOnUse">
<stop stop-color="#496EB7"/>
<stop offset="1" stop-color="#4B1666"/>
</linearGradient>
</defs>
</svg>
