<svg width="30" height="30" viewBox="0 0 30 30" fill="none" xmlns="http://www.w3.org/2000/svg">
<path d="M25.3635 24.0933C26.9492 24.0933 28.2392 22.8076 28.2392 21.2219V4.19474C28.2392 2.70759 27.0307 1.49902 25.5435 1.49902H4.45353C2.96638 1.49902 1.75781 2.70759 1.75781 4.19474V21.2219C1.75781 22.8076 3.04781 24.0933 4.63353 24.0933H11.21V25.742H10.4385C10.0998 25.7415 9.77465 25.8755 9.53467 26.1145C9.29469 26.3536 9.15949 26.6783 9.15881 27.017V27.9779C9.15881 28.2655 9.39367 28.5007 9.68124 28.5007H20.3184C20.606 28.5007 20.8412 28.2655 20.8412 27.9779V27.017C20.8409 26.8493 20.8075 26.6832 20.743 26.5283C20.6785 26.3734 20.5841 26.2328 20.4652 26.1144C20.3464 25.996 20.2053 25.9022 20.0502 25.8383C19.8951 25.7744 19.7289 25.7417 19.5611 25.742H18.7867V24.0933H25.3635ZM15.0007 22.7005C14.5935 22.7005 14.2635 22.3747 14.2635 21.9676C14.2635 21.5562 14.5935 21.2262 15.0007 21.2262C15.4035 21.2262 15.7335 21.5562 15.7335 21.9676C15.7335 22.3747 15.4035 22.7005 15.0007 22.7005ZM2.61496 19.8462V4.19474C2.61496 3.18331 3.4421 2.35617 4.45353 2.35617H25.5435C26.555 2.35617 27.3821 3.18331 27.3821 4.19474V19.8462H2.61496Z" fill="white"/>
<path d="M22.6853 5.7417C22.1496 5.7417 21.6996 6.07599 21.5238 6.5517H16.2696C16.0938 6.07599 15.6396 5.7417 15.1081 5.7417C14.5767 5.7417 14.1267 6.07599 13.951 6.5517H8.47384C8.37388 6.27888 8.18097 6.05002 7.929 5.90532C7.67704 5.76062 7.38214 5.70936 7.09612 5.76052C6.8101 5.81169 6.55126 5.96202 6.36509 6.18509C6.17891 6.40817 6.07731 6.68972 6.07813 6.98028C6.07813 7.30763 6.20817 7.62157 6.43964 7.85305C6.67112 8.08452 6.98506 8.21456 7.31242 8.21456C7.84813 8.21456 8.29813 7.88028 8.47384 7.40885H11.5424C9.30099 8.59599 7.74099 10.906 7.61242 13.5888H7.33813C7.09384 13.5888 6.89242 13.786 6.89242 14.0346V15.4231C6.89242 15.6674 7.09384 15.8688 7.33813 15.8688H8.73099C8.97527 15.8688 9.1767 15.6674 9.1767 15.4231V14.0346C9.1767 13.786 8.97527 13.5888 8.73099 13.5888H8.46956C8.6367 10.4903 10.9767 7.95742 13.981 7.49028C14.1138 7.77313 14.341 7.99599 14.6281 8.12028C14.6238 8.12885 14.6196 8.13313 14.6153 8.1417L11.4567 14.4588C11.3838 14.6088 11.401 14.7931 11.5124 14.9217C11.6196 15.0546 11.7953 15.1103 11.9581 15.0631L15.001 14.1974L18.0396 15.0631C18.2406 15.1081 18.3888 15.0438 18.4853 14.9217C18.5967 14.7931 18.6181 14.6088 18.541 14.4588L15.3996 8.17599C15.7596 8.09456 16.0596 7.85028 16.2181 7.52456C19.1281 8.07742 21.361 10.5588 21.5238 13.5888H21.2667C21.0224 13.5888 20.821 13.786 20.821 14.0346V15.4231C20.821 15.6674 21.0224 15.8688 21.2667 15.8688H22.6596C22.9038 15.8688 23.1053 15.6674 23.1053 15.4231V14.0346C23.1053 13.786 22.9038 13.5888 22.6596 13.5888H22.381C22.2524 10.906 20.6924 8.59599 18.451 7.40885H21.5238C21.6996 7.88028 22.1496 8.21456 22.6853 8.21456C22.8474 8.21456 23.0079 8.18264 23.1576 8.12061C23.3074 8.05858 23.4434 7.96766 23.558 7.85305C23.6727 7.73843 23.7636 7.60237 23.8256 7.45262C23.8876 7.30287 23.9196 7.14236 23.9196 6.98028C23.9196 6.29456 23.3667 5.7417 22.6853 5.7417Z" fill="white"/>
</svg>
