<svg width="30" height="30" viewBox="0 0 30 30" fill="none" xmlns="http://www.w3.org/2000/svg">
<path d="M21.266 0.000488281H8.7368C7.62838 0.000488281 6.72656 0.902305 6.72656 2.01072V27.9891C6.72656 29.0976 7.62838 29.9994 8.7368 29.9994H21.266C22.3744 29.9994 23.2762 29.0976 23.2762 27.9891V2.01072C23.2762 0.902363 22.3744 0.000488281 21.266 0.000488281ZM8.7368 0.92832H21.266C21.8628 0.92832 22.3485 1.41395 22.3485 2.01078V24.7109H7.65434V2.01072C7.65434 1.41395 8.14002 0.92832 8.7368 0.92832ZM14.1462 27.1232C14.146 27.0107 14.1679 26.8991 14.2109 26.7951C14.2538 26.691 14.3169 26.5965 14.3965 26.5169C14.4762 26.4373 14.5707 26.3742 14.6748 26.3312C14.7788 26.2882 14.8904 26.2663 15.0029 26.2665C15.4761 26.2665 15.8565 26.65 15.8565 27.1232C15.8565 27.5964 15.4761 27.9799 15.0029 27.9799C14.8904 27.9802 14.7788 27.9582 14.6748 27.9152C14.5707 27.8723 14.4762 27.8092 14.3966 27.7296C14.317 27.65 14.2539 27.5554 14.2109 27.4514C14.1679 27.3473 14.146 27.2358 14.1462 27.1232Z" fill="white"/>
<path d="M17.132 3.40238H12.8703C12.614 3.40238 12.4064 3.19473 12.4064 2.9385C12.4064 2.68227 12.6141 2.47461 12.8703 2.47461H17.132C17.3883 2.47461 17.5959 2.68227 17.5959 2.9385C17.5959 3.19473 17.3883 3.40238 17.132 3.40238ZM15.0011 9.0125C12.7929 9.0125 10.9961 10.8093 10.9961 13.0175C10.9961 15.2257 12.7929 17.0225 15.0011 17.0225C17.2093 17.0225 19.0061 15.2257 19.0061 13.0175C19.0061 10.8093 17.2093 9.0125 15.0011 9.0125ZM16.6163 12.4261L14.7773 14.2651C14.7343 14.3082 14.6831 14.3424 14.6269 14.3657C14.5706 14.389 14.5103 14.401 14.4493 14.401C14.3884 14.401 14.3281 14.389 14.2718 14.3657C14.2156 14.3424 14.1644 14.3082 14.1214 14.2651L13.386 13.5298C13.3429 13.4867 13.3087 13.4356 13.2854 13.3793C13.262 13.323 13.25 13.2627 13.25 13.2018C13.25 13.1409 13.262 13.0806 13.2854 13.0243C13.3087 12.968 13.3429 12.9169 13.386 12.8738C13.5669 12.6926 13.8607 12.6926 14.0419 12.8738L14.4493 13.2811L15.9603 11.7701C16.0034 11.727 16.0545 11.6928 16.1108 11.6695C16.1671 11.6462 16.2274 11.6342 16.2883 11.6342C16.3492 11.6342 16.4095 11.6462 16.4658 11.6695C16.5221 11.6928 16.5732 11.727 16.6163 11.7701C16.6594 11.8132 16.6936 11.8643 16.7169 11.9206C16.7402 11.9769 16.7522 12.0372 16.7522 12.0981C16.7522 12.159 16.7402 12.2194 16.7169 12.2756C16.6936 12.3319 16.6594 12.383 16.6163 12.4261Z" fill="white"/>
</svg>
