<svg width="30" height="30" viewBox="0 0 30 30" fill="none" xmlns="http://www.w3.org/2000/svg">
<path d="M25 1.5625H5C3.1 1.5625 1.5625 3.1 1.5625 5V25C1.5625 26.9 3.1 28.4375 5 28.4375H25C26.9 28.4375 28.4375 26.9 28.4375 25V5C28.4375 3.1 26.9 1.5625 25 1.5625ZM3.4375 5C3.4375 4.1375 4.1375 3.4375 5 3.4375H25C25.8625 3.4375 26.5625 4.1375 26.5625 5V6.5625H3.4375V5ZM26.5625 25C26.5625 25.8625 25.8625 26.5625 25 26.5625H5C4.1375 26.5625 3.4375 25.8625 3.4375 25V8.4375H26.5625V25ZM6.625 18.1625C6.45065 17.9861 6.35287 17.748 6.35287 17.5C6.35287 17.252 6.45065 17.0139 6.625 16.8375L9.75 13.7125C10.1125 13.35 10.7125 13.35 11.075 13.7125C11.4375 14.075 11.4375 14.675 11.075 15.0375L8.6125 17.5L11.075 19.9625C11.4375 20.325 11.4375 20.925 11.075 21.2875C10.8875 21.475 10.65 21.5625 10.4125 21.5625C10.175 21.5625 9.9375 21.475 9.75 21.2875L6.625 18.1625ZM18.9125 19.9625L21.375 17.5L18.9125 15.0375C18.55 14.675 18.55 14.075 18.9125 13.7125C19.275 13.35 19.875 13.35 20.2375 13.7125L23.3625 16.8375C23.725 17.2 23.725 17.8 23.3625 18.1625L20.2375 21.2875C20.05 21.475 19.8125 21.5625 19.575 21.5625C19.3375 21.5625 19.1 21.475 18.9125 21.2875C18.7382 21.1111 18.6404 20.873 18.6404 20.625C18.6404 20.377 18.7382 20.1389 18.9125 19.9625ZM12.5625 22.225L15.625 12.225C15.775 11.7375 16.3 11.45 16.8 11.6C17.3 11.75 17.575 12.275 17.425 12.775L14.3625 22.775C14.2876 23.0123 14.1225 23.2108 13.9027 23.3276C13.683 23.4445 13.4262 23.4705 13.1875 23.4C13.069 23.3643 12.9588 23.3055 12.8632 23.227C12.7676 23.1485 12.6884 23.0519 12.6303 22.9426C12.5722 22.8334 12.5363 22.7138 12.5247 22.5906C12.513 22.4674 12.5259 22.3432 12.5625 22.225Z" fill="white"/>
</svg>
