<svg width="30" height="30" viewBox="0 0 30 30" fill="none" xmlns="http://www.w3.org/2000/svg">
<g clip-path="url(#clip0_331_2174)">
<path d="M14.9991 5.83057C9.94298 5.83057 5.82952 9.94385 5.82952 15.0001C5.82952 20.0564 9.94298 24.1697 14.9991 24.1697C20.0552 24.1697 24.1687 20.0563 24.1687 15.0001C24.1687 9.94403 20.0552 5.83057 14.9991 5.83057ZM14.9991 22.2947C13.5564 22.2947 12.146 21.8669 10.9464 21.0654C9.74686 20.2638 8.81189 19.1246 8.25979 17.7917C7.70768 16.4587 7.56322 14.992 7.84468 13.577C8.12614 12.162 8.82089 10.8623 9.84105 9.8421C10.8612 8.82194 12.161 8.12719 13.576 7.84573C14.991 7.56427 16.4577 7.70873 17.7906 8.26084C19.1235 8.81294 20.2628 9.74791 21.0643 10.9475C21.8658 12.1471 22.2937 13.5574 22.2937 15.0001C22.2915 16.9341 21.5222 18.7882 20.1547 20.1558C18.7872 21.5233 16.9331 22.2925 14.9991 22.2947ZM29.2713 18.2446L28.3116 15.1262C28.2826 15.0447 28.2826 14.9557 28.3116 14.8742L29.2714 11.7557C29.4143 11.3028 29.4122 10.8166 29.2655 10.3649C29.1187 9.9132 28.8345 9.51861 28.4527 9.23621L25.8432 7.27748C25.7718 7.22859 25.7194 7.15657 25.695 7.07358L24.6385 3.98627C24.4879 3.53581 24.2005 3.14361 23.8162 2.86445C23.432 2.58528 22.9701 2.43307 22.4952 2.42908L19.2326 2.37817C19.1462 2.38057 19.0615 2.35307 18.993 2.3003L16.3237 0.42383C15.9371 0.147857 15.474 -0.000488281 14.999 -0.000488281C14.524 -0.000488281 14.0609 0.147857 13.6743 0.42383L11.0052 2.3003C10.9367 2.35307 10.852 2.38057 10.7655 2.37817L7.50302 2.42908C7.02807 2.43307 6.56623 2.58528 6.18197 2.86445C5.79771 3.14361 5.51023 3.53581 5.35966 3.98627L4.30315 7.0734C4.27868 7.15636 4.22637 7.22835 4.15503 7.27725L1.54555 9.23598C1.16368 9.51836 0.879522 9.91295 0.732753 10.3646C0.585984 10.8163 0.583931 11.3026 0.726882 11.7555L1.68659 14.8741C1.71552 14.9556 1.71552 15.0446 1.68659 15.1261L0.726823 18.2446C0.583873 18.6975 0.585925 19.1838 0.732694 19.6355C0.879464 20.0872 1.16362 20.4817 1.5455 20.7641L4.15503 22.7228C4.22638 22.7717 4.2787 22.8437 4.30315 22.9266L5.35966 26.014C5.51023 26.4645 5.79771 26.8567 6.18197 27.1358C6.56623 27.415 7.02807 27.5672 7.50302 27.5712L10.7654 27.6221C10.8519 27.6197 10.9365 27.6472 11.0051 27.6999L13.6745 29.5764C14.061 29.8524 14.5241 30.0007 14.9991 30.0007C15.474 30.0007 15.9371 29.8524 16.3237 29.5764L18.993 27.7C19.0615 27.6472 19.1462 27.6197 19.2327 27.6221L22.4952 27.5712C22.9701 27.5672 23.432 27.415 23.8162 27.1358C24.2005 26.8566 24.4879 26.4644 24.6385 26.0139L25.695 22.9269C25.7194 22.8439 25.7718 22.7719 25.8431 22.723L28.4526 20.7643C28.8345 20.4819 29.1187 20.0873 29.2655 19.6356C29.4122 19.1839 29.4143 18.6976 29.2713 18.2446ZM27.3272 19.2648L24.7177 21.2235C24.3451 21.4976 24.0668 21.8807 23.9213 22.3198L22.8647 25.4069C22.8388 25.4919 22.7859 25.5662 22.714 25.6184C22.6421 25.6707 22.5551 25.6981 22.4663 25.6964L19.2037 25.7473C18.7411 25.7501 18.2909 25.8965 17.9151 26.1661L15.2455 28.0425C15.1745 28.0961 15.088 28.1251 14.9991 28.1251C14.9102 28.1251 14.8237 28.0961 14.7527 28.0425L12.0833 26.1659C11.7075 25.8963 11.2573 25.75 10.7948 25.7472L7.53225 25.6964C7.44339 25.698 7.35642 25.6706 7.28452 25.6183C7.21262 25.5661 7.15972 25.4918 7.13382 25.4068L6.07731 22.3197C5.93174 21.8806 5.65342 21.4976 5.28079 21.2234L2.67096 19.2648C2.59805 19.2138 2.54373 19.1405 2.51623 19.0559C2.48874 18.9713 2.48958 18.8801 2.51862 18.796L3.47839 15.6775C3.61866 15.2368 3.61866 14.7633 3.47839 14.3225L2.51862 11.204C2.48958 11.12 2.48874 11.0287 2.51623 10.9441C2.54373 10.8595 2.59805 10.7862 2.67096 10.7353L5.2805 8.77655C5.65306 8.50238 5.93134 8.11933 6.0769 7.68026L7.13346 4.59319C7.15936 4.50816 7.21227 4.4339 7.28417 4.38165C7.35607 4.32939 7.44304 4.302 7.5319 4.30362L10.7943 4.2527C11.257 4.25002 11.7074 4.10371 12.0833 3.83399L14.753 1.95776C14.8239 1.90418 14.9104 1.87519 14.9993 1.87519C15.0882 1.87519 15.1747 1.90418 15.2457 1.95776L17.9147 3.83422C18.2906 4.10387 18.7409 4.25018 19.2034 4.25293L22.4659 4.30385C22.5548 4.30224 22.6418 4.32964 22.7136 4.38189C22.7855 4.43414 22.8385 4.5084 22.8644 4.59342L23.9209 7.68043C24.0664 8.11953 24.3447 8.50261 24.7173 8.77678L27.3272 10.7355C27.4001 10.7864 27.4545 10.8598 27.482 10.9443C27.5095 11.0289 27.5086 11.1202 27.4796 11.2043L26.5198 14.3227C26.3795 14.7635 26.3795 15.237 26.5198 15.6778L27.4796 18.7962C27.5086 18.8802 27.5094 18.9715 27.4819 19.056C27.4544 19.1406 27.4001 19.2138 27.3272 19.2648ZM20.085 11.6846C20.1682 11.7754 20.2327 11.8816 20.2748 11.9973C20.3169 12.113 20.3359 12.2359 20.3305 12.3589C20.3251 12.4818 20.2956 12.6026 20.2436 12.7142C20.1916 12.8258 20.1181 12.926 20.0273 13.0092L14.1747 18.3733C14.0017 18.5317 13.7758 18.6195 13.5413 18.6194C13.5235 18.6194 13.5057 18.6189 13.488 18.6179C13.3629 18.6108 13.2406 18.5787 13.1282 18.5235C13.0157 18.4683 12.9155 18.3912 12.8334 18.2966L9.89698 14.9158C9.81584 14.8229 9.75383 14.7149 9.7145 14.598C9.67517 14.4811 9.6593 14.3576 9.66778 14.2345C9.67627 14.1115 9.70895 13.9913 9.76395 13.8809C9.81896 13.7705 9.8952 13.6721 9.98832 13.5912C10.0814 13.5103 10.1896 13.4486 10.3066 13.4096C10.4236 13.3706 10.5472 13.3551 10.6702 13.3639C10.7932 13.3728 10.9133 13.4058 11.0235 13.4611C11.1338 13.5164 11.232 13.5929 11.3126 13.6863L13.6176 16.3406L18.7605 11.6271C18.9437 11.4591 19.1863 11.3707 19.4347 11.3815C19.6831 11.3923 19.917 11.5013 20.085 11.6846Z" fill="white"/>
</g>
<defs>
<clipPath id="clip0_331_2174">
<rect width="30" height="30" fill="white"/>
</clipPath>
</defs>
</svg>
