<svg width="30" height="30" viewBox="0 0 30 30" fill="none" xmlns="http://www.w3.org/2000/svg">
<path fill-rule="evenodd" clip-rule="evenodd" d="M28.4375 15.625V6.25C28.4375 5.0068 27.9436 3.81451 27.0646 2.93544C26.1855 2.05636 24.9932 1.5625 23.75 1.5625H6.25C5.0068 1.5625 3.81451 2.05636 2.93544 2.93544C2.05636 3.81451 1.5625 5.0068 1.5625 6.25V23.75C1.5625 24.9932 2.05636 26.1855 2.93544 27.0646C3.81451 27.9436 5.0068 28.4375 6.25 28.4375H15.625C15.8736 28.4375 16.1121 28.3387 16.2879 28.1629C16.4637 27.9871 16.5625 27.7486 16.5625 27.5C16.5625 27.2514 16.4637 27.0129 16.2879 26.8371C16.1121 26.6613 15.8736 26.5625 15.625 26.5625H6.25C5.50408 26.5625 4.78871 26.2662 4.26126 25.7387C3.73382 25.2113 3.4375 24.4959 3.4375 23.75V6.25C3.4375 5.50408 3.73382 4.78871 4.26126 4.26126C4.78871 3.73382 5.50408 3.4375 6.25 3.4375H23.75C24.4959 3.4375 25.2113 3.73382 25.7387 4.26126C26.2662 4.78871 26.5625 5.50408 26.5625 6.25V15.625C26.5625 15.8736 26.6613 16.1121 26.8371 16.2879C27.0129 16.4637 27.2514 16.5625 27.5 16.5625C27.7486 16.5625 27.9871 16.4637 28.1629 16.2879C28.3387 16.1121 28.4375 15.8736 28.4375 15.625Z" fill="white"/>
<path fill-rule="evenodd" clip-rule="evenodd" d="M27.5 7.8125H2.5C2.25136 7.8125 2.0129 7.91127 1.83709 8.08709C1.66127 8.2629 1.5625 8.50136 1.5625 8.75C1.5625 8.99864 1.66127 9.2371 1.83709 9.41291C2.0129 9.58873 2.25136 9.6875 2.5 9.6875H27.5C27.7486 9.6875 27.9871 9.58873 28.1629 9.41291C28.3387 9.2371 28.4375 8.99864 28.4375 8.75C28.4375 8.50136 28.3387 8.2629 28.1629 8.08709C27.9871 7.91127 27.7486 7.8125 27.5 7.8125Z" fill="white"/>
<path d="M15.9375 6.5625C16.4553 6.5625 16.875 6.14277 16.875 5.625C16.875 5.10723 16.4553 4.6875 15.9375 4.6875C15.4197 4.6875 15 5.10723 15 5.625C15 6.14277 15.4197 6.5625 15.9375 6.5625Z" fill="white"/>
<path d="M19.375 6.5625C19.8928 6.5625 20.3125 6.14277 20.3125 5.625C20.3125 5.10723 19.8928 4.6875 19.375 4.6875C18.8572 4.6875 18.4375 5.10723 18.4375 5.625C18.4375 6.14277 18.8572 6.5625 19.375 6.5625Z" fill="white"/>
<path d="M22.8125 6.5625C23.3303 6.5625 23.75 6.14277 23.75 5.625C23.75 5.10723 23.3303 4.6875 22.8125 4.6875C22.2947 4.6875 21.875 5.10723 21.875 5.625C21.875 6.14277 22.2947 6.5625 22.8125 6.5625Z" fill="white"/>
<path fill-rule="evenodd" clip-rule="evenodd" d="M11.3147 12.2038L9.40594 17.9313C9.36515 18.0486 9.34805 18.1728 9.35565 18.2967C9.36325 18.4206 9.39538 18.5418 9.4502 18.6532C9.50501 18.7646 9.5814 18.864 9.67495 18.9457C9.76849 19.0273 9.87732 19.0896 9.99512 19.1288C10.1129 19.168 10.2373 19.1835 10.3611 19.1743C10.485 19.165 10.6057 19.1313 10.7164 19.075C10.827 19.0187 10.9254 18.941 11.0058 18.8464C11.0862 18.7518 11.147 18.6421 11.1847 18.5238L13.0934 12.7963C13.1342 12.6791 13.1513 12.5548 13.1437 12.4309C13.1361 12.307 13.104 12.1858 13.0492 12.0744C12.9944 11.963 12.918 11.8636 12.8244 11.782C12.7309 11.7003 12.6221 11.6381 12.5043 11.5988C12.3865 11.5596 12.2621 11.5441 12.1382 11.5534C12.0144 11.5626 11.8937 11.5964 11.783 11.6526C11.6723 11.7089 11.574 11.7866 11.4936 11.8812C11.4132 11.9759 11.3524 12.0855 11.3147 12.2038ZM13.6772 14.1176L14.9234 15.3638L13.6772 16.6101C13.5019 16.7862 13.4034 17.0246 13.4034 17.2732C13.4034 17.5217 13.5019 17.7602 13.6772 17.9363C13.8534 18.1117 14.0918 18.2101 14.3403 18.2101C14.5889 18.2101 14.8273 18.1117 15.0034 17.9363L16.9122 16.0263C16.9993 15.9394 17.0684 15.8361 17.1155 15.7224C17.1626 15.6087 17.1869 15.4869 17.1869 15.3638C17.1869 15.2408 17.1626 15.1189 17.1155 15.0052C17.0684 14.8915 16.9993 14.7883 16.9122 14.7013L15.0034 12.7913C14.8273 12.616 14.5889 12.5175 14.3403 12.5175C14.0918 12.5175 13.8534 12.616 13.6772 12.7913C13.5019 12.9675 13.4034 13.2059 13.4034 13.4544C13.4034 13.703 13.5019 13.9414 13.6772 14.1176ZM7.49594 12.7913L5.58719 14.7013C5.50011 14.7883 5.43103 14.8915 5.3839 15.0052C5.33676 15.1189 5.3125 15.2408 5.3125 15.3638C5.3125 15.4869 5.33676 15.6087 5.3839 15.7224C5.43103 15.8361 5.50011 15.9394 5.58719 16.0263L7.49594 17.9363C7.6721 18.1117 7.91053 18.2101 8.15907 18.2101C8.40761 18.2101 8.64604 18.1117 8.82219 17.9363C8.99753 17.7602 9.09596 17.5217 9.09596 17.2732C9.09596 17.0246 8.99753 16.7862 8.82219 16.6101L7.57594 15.3638L8.82219 14.1176C8.99753 13.9414 9.09596 13.703 9.09596 13.4544C9.09596 13.2059 8.99753 12.9675 8.82219 12.7913C8.64604 12.616 8.40761 12.5175 8.15907 12.5175C7.91053 12.5175 7.6721 12.616 7.49594 12.7913ZM26.6072 22.5451C26.6074 21.7412 26.3693 20.9554 25.9228 20.2869C25.4764 19.6184 24.8418 19.0974 24.0992 18.7896C23.3565 18.4819 22.5394 18.4013 21.751 18.5581C20.9625 18.7148 20.2383 19.1019 19.6699 19.6703C19.1015 20.2387 18.7145 20.9629 18.5577 21.7513C18.401 22.5397 18.4815 23.3569 18.7893 24.0995C19.097 24.8421 19.6181 25.4768 20.2865 25.9232C20.955 26.3697 21.7409 26.6078 22.5447 26.6076C23.6219 26.6069 24.6549 26.1787 25.4166 25.417C26.1783 24.6552 26.6065 23.6223 26.6072 22.5451ZM24.7322 22.5451C24.7322 23.7513 23.7509 24.7326 22.5447 24.7326C22.112 24.7326 21.6891 24.6043 21.3294 24.3639C20.9697 24.1235 20.6893 23.7819 20.5237 23.3822C20.3581 22.9825 20.3148 22.5426 20.3992 22.1183C20.4836 21.694 20.692 21.3042 20.9979 20.9983C21.3038 20.6923 21.6936 20.484 22.1179 20.3996C22.5423 20.3152 22.9821 20.3585 23.3818 20.5241C23.7815 20.6896 24.1232 20.97 24.3635 21.3298C24.6039 21.6895 24.7322 22.1124 24.7322 22.5451Z" fill="white"/>
<path fill-rule="evenodd" clip-rule="evenodd" d="M17.5 23.4825H19.33C19.5786 23.4825 19.8171 23.3837 19.9929 23.2079C20.1687 23.0321 20.2675 22.7936 20.2675 22.545C20.2675 22.2964 20.1687 22.0579 19.9929 21.8821C19.8171 21.7063 19.5786 21.6075 19.33 21.6075H17.5C17.2514 21.6075 17.0129 21.7063 16.8371 21.8821C16.6613 22.0579 16.5625 22.2964 16.5625 22.545C16.5625 22.7936 16.6613 23.0321 16.8371 23.2079C17.0129 23.3837 17.2514 23.4825 17.5 23.4825ZM19.6588 26.73L20.9538 25.435C21.1244 25.2581 21.2188 25.0212 21.2166 24.7754C21.2143 24.5296 21.1156 24.2945 20.9417 24.1208C20.7678 23.9471 20.5326 23.8486 20.2868 23.8466C20.041 23.8445 19.8042 23.9391 19.6275 24.11L18.3325 25.4037C18.2454 25.4908 18.1763 25.5942 18.1292 25.708C18.0821 25.8218 18.0578 25.9437 18.0578 26.0669C18.0578 26.19 18.0821 26.312 18.1292 26.4258C18.1763 26.5395 18.2454 26.6429 18.3325 26.73C18.4196 26.8171 18.523 26.8862 18.6367 26.9333C18.7505 26.9804 18.8725 27.0047 18.9956 27.0047C19.1188 27.0047 19.2407 26.9804 19.3545 26.9333C19.4683 26.8862 19.5717 26.8171 19.6588 26.73ZM23.4825 27.5V25.67C23.4825 25.4214 23.3837 25.1829 23.2079 25.0071C23.0321 24.8313 22.7936 24.7325 22.545 24.7325C22.2964 24.7325 22.0579 24.8313 21.8821 25.0071C21.7063 25.1829 21.6075 25.4214 21.6075 25.67V27.5C21.6075 27.7486 21.7063 27.9871 21.8821 28.1629C22.0579 28.3387 22.2964 28.4375 22.545 28.4375C22.7936 28.4375 23.0321 28.3387 23.2079 28.1629C23.3837 27.9871 23.4825 27.7486 23.4825 27.5ZM26.73 25.3413L25.435 24.0462C25.2581 23.8756 25.0212 23.7812 24.7754 23.7834C24.5296 23.7857 24.2945 23.8844 24.1208 24.0583C23.9471 24.2322 23.8486 24.4674 23.8466 24.7132C23.8445 24.959 23.9391 25.1958 24.11 25.3725L25.4037 26.6675C25.4908 26.7546 25.5942 26.8237 25.708 26.8708C25.8218 26.9179 25.9437 26.9422 26.0669 26.9422C26.19 26.9422 26.312 26.9179 26.4258 26.8708C26.5395 26.8237 26.6429 26.7546 26.73 26.6675C26.8171 26.5804 26.8862 26.477 26.9333 26.3633C26.9804 26.2495 27.0047 26.1275 27.0047 26.0044C27.0047 25.8812 26.9804 25.7593 26.9333 25.6455C26.8862 25.5317 26.8171 25.4283 26.73 25.3413ZM27.5 21.6075H25.67C25.4214 21.6075 25.1829 21.7063 25.0071 21.8821C24.8313 22.0579 24.7325 22.2964 24.7325 22.545C24.7325 22.7936 24.8313 23.0321 25.0071 23.2079C25.1829 23.3837 25.4214 23.4825 25.67 23.4825H27.5C27.7486 23.4825 27.9871 23.3837 28.1629 23.2079C28.3387 23.0321 28.4375 22.7936 28.4375 22.545C28.4375 22.2964 28.3387 22.0579 28.1629 21.8821C27.9871 21.7063 27.7486 21.6075 27.5 21.6075ZM25.4037 18.3325L24.11 19.6275C23.9391 19.8042 23.8445 20.041 23.8466 20.2868C23.8486 20.5326 23.9471 20.7678 24.1208 20.9417C24.2945 21.1156 24.5296 21.2143 24.7754 21.2166C25.0212 21.2188 25.2581 21.1244 25.435 20.9538L26.73 19.6588C26.8171 19.5717 26.8862 19.4683 26.9333 19.3545C26.9804 19.2407 27.0047 19.1188 27.0047 18.9956C27.0047 18.8725 26.9804 18.7505 26.9333 18.6367C26.8862 18.523 26.8171 18.4196 26.73 18.3325C26.6429 18.2454 26.5395 18.1763 26.4258 18.1292C26.312 18.0821 26.19 18.0578 26.0669 18.0578C25.9437 18.0578 25.8218 18.0821 25.708 18.1292C25.5942 18.1763 25.4908 18.2454 25.4037 18.3325ZM21.6075 17.5V19.33C21.6075 19.5786 21.7063 19.8171 21.8821 19.9929C22.0579 20.1687 22.2964 20.2675 22.545 20.2675C22.7936 20.2675 23.0321 20.1687 23.2079 19.9929C23.3837 19.8171 23.4825 19.5786 23.4825 19.33V17.5C23.4825 17.2514 23.3837 17.0129 23.2079 16.8371C23.0321 16.6613 22.7936 16.5625 22.545 16.5625C22.2964 16.5625 22.0579 16.6613 21.8821 16.8371C21.7063 17.0129 21.6075 17.2514 21.6075 17.5ZM18.3325 19.5963L19.6275 20.89C19.8042 21.0609 20.041 21.1555 20.2868 21.1534C20.5326 21.1514 20.7678 21.0529 20.9417 20.8792C21.1156 20.7055 21.2143 20.4704 21.2166 20.2246C21.2188 19.9788 21.1244 19.7419 20.9538 19.565L19.6588 18.27C19.4829 18.0941 19.2443 17.9953 18.9956 17.9953C18.7469 17.9953 18.5084 18.0941 18.3325 18.27C18.1566 18.4459 18.0578 18.6844 18.0578 18.9331C18.0578 19.1818 18.1566 19.4204 18.3325 19.5963Z" fill="white"/>
</svg>
