<svg width="99" height="77" viewBox="0 0 99 77" fill="none" xmlns="http://www.w3.org/2000/svg">
<path d="M0.66468 75.1412C0.87455 75.329 1.12133 75.471 1.38922 75.558C1.65711 75.645 1.94022 75.6751 2.22041 75.6464C15.6927 74.226 25.9637 69.5159 32.7481 61.6475C39.5111 53.8058 42.9388 42.6316 42.9388 28.4344L42.9388 2.00979C42.9388 1.47671 42.727 0.965454 42.35 0.588509C41.9731 0.211563 41.4618 -0.000198364 40.9288 -0.000198364L2.62911 -0.000198364C2.09603 -0.000198364 1.58479 0.211563 1.20783 0.588509C0.830887 0.965454 0.619125 1.47671 0.619125 2.00979L0.619125 38.3464C0.619125 38.8794 0.830887 39.3907 1.20783 39.7676C1.58479 40.1446 2.09603 40.3563 2.62911 40.3563L20.6306 40.3563C20.4738 45.0235 19.0346 48.7313 16.2448 51.6712C13.215 54.8551 8.25574 57.3595 1.50485 59.1149C1.07397 59.2268 0.692436 59.4785 0.42009 59.8307C0.147743 60.1828 0 60.6154 3.8147e-05 61.0606V73.6484C3.8147e-05 74.2179 0.241241 74.7606 0.66468 75.1412ZM4.02002 62.5935C10.7575 60.6626 15.8455 57.9236 19.1593 54.4397C22.8134 50.5885 24.6653 45.5582 24.6653 39.4827V38.345C24.6653 37.8119 24.4535 37.3007 24.0766 36.9237C23.6996 36.5468 23.1884 36.335 22.6553 36.335L4.64044 36.335V4.01978L38.9201 4.01978L38.9201 28.4358C38.9201 41.6401 35.8207 51.9325 29.705 59.0238C23.9779 65.6648 15.3443 69.8161 4.02002 71.3798V62.5935ZM58.2843 76.4731C71.7566 75.0501 82.025 70.3413 88.808 62.4743C95.5723 54.6273 99 43.4531 99 29.2612L99 2.82986C99 2.29678 98.7882 1.78553 98.4113 1.40858C98.0343 1.03164 97.5231 0.819878 96.99 0.819878L58.689 0.819878C58.1559 0.819878 57.6447 1.03164 57.2677 1.40858C56.8908 1.78553 56.679 2.29678 56.679 2.82986L56.679 39.1691C56.679 39.7022 56.8908 40.2134 57.2677 40.5904C57.6447 40.9673 58.1559 41.1791 58.689 41.1791L76.795 41.1791C76.6355 45.8449 75.183 49.5527 72.3663 52.4873C69.3004 55.6738 64.321 58.1809 57.5674 59.9363C57.1366 60.0482 56.755 60.2999 56.4827 60.6521C56.2103 61.0042 56.0626 61.4368 56.0626 61.882L56.0626 74.4739C56.0632 74.7555 56.1228 75.034 56.2377 75.2911C56.3525 75.5483 56.5201 75.7786 56.7294 75.967C56.9388 76.1554 57.1854 76.2978 57.4532 76.385C57.721 76.4722 58.0042 76.5022 58.2843 76.4731ZM60.0826 63.4176C66.8161 61.4867 71.9201 58.7518 75.2661 55.2745C78.9577 51.4247 80.8284 46.3903 80.8284 40.3094V39.1704C80.8284 38.6374 80.6166 38.1261 80.2397 37.7492C79.8627 37.3722 79.3515 37.1605 78.8184 37.1605L60.699 37.1605L60.699 4.84253L94.98 4.84253L94.98 29.2626C94.98 42.4628 91.8793 52.7539 85.7636 59.8505C80.0391 66.4902 71.4055 70.6402 60.0826 72.2066L60.0826 63.4176Z" fill="#0093AF" fill-opacity="0.15"/>
</svg>
