<svg width="99" height="77" viewBox="0 0 99 77" fill="none" xmlns="http://www.w3.org/2000/svg">
<path d="M98.3354 1.34269C98.1255 1.15484 97.8787 1.01288 97.6108 0.925893C97.3429 0.838903 97.0598 0.808801 96.7796 0.837515C83.3073 2.25791 73.0363 6.96798 66.2519 14.8364C59.489 22.6781 56.0613 33.8522 56.0613 48.0495V74.4741C56.0613 75.0072 56.273 75.5185 56.65 75.8954C57.0269 76.2723 57.5382 76.4841 58.0713 76.4841H96.3709C96.904 76.4841 97.4153 76.2723 97.7922 75.8954C98.1692 75.5185 98.3809 75.0072 98.3809 74.4741V38.1375C98.3809 37.6045 98.1692 37.0932 97.7922 36.7163C97.4153 36.3393 96.904 36.1276 96.3709 36.1276H78.3695C78.5262 31.4604 79.9654 27.7526 82.7553 24.8127C85.785 21.6288 90.7443 19.1244 97.4952 17.369C97.9261 17.2571 98.3076 17.0054 98.58 16.6532C98.8523 16.3011 99 15.8685 99 15.4233V2.83544C99 2.26595 98.7588 1.72325 98.3354 1.34269ZM94.98 13.8904C88.2425 15.8213 83.1546 18.5603 79.8408 22.0442C76.1866 25.8954 74.3347 30.9257 74.3347 37.0012V38.1389C74.3347 38.672 74.5465 39.1832 74.9235 39.5602C75.3004 39.9371 75.8117 40.1489 76.3447 40.1489H94.3596V72.4641H60.0799V48.0481C60.0799 34.8438 63.1793 24.5514 69.295 17.4601C75.0222 10.8191 83.6557 6.66782 94.98 5.10405V13.8904ZM40.7157 0.0107386C27.2434 1.43381 16.975 6.14255 10.192 14.0096C3.4277 21.8566 0 33.0308 0 47.2227V73.6541C0 74.1871 0.211766 74.6984 0.588712 75.0753C0.965658 75.4523 1.47691 75.664 2.00999 75.664H40.311C40.8441 75.664 41.3553 75.4523 41.7323 75.0753C42.1092 74.6984 42.321 74.1871 42.321 73.6541V37.3148C42.321 36.7817 42.1092 36.2705 41.7323 35.8935C41.3553 35.5166 40.8441 35.3048 40.311 35.3048H22.205C22.3645 30.6389 23.817 26.9312 26.6337 23.9966C29.6996 20.8101 34.679 18.303 41.4326 16.5476C41.8634 16.4357 42.245 16.1839 42.5173 15.8318C42.7897 15.4797 42.9374 15.0471 42.9374 14.6019V2.01001C42.9368 1.72834 42.8772 1.44993 42.7623 1.19274C42.6475 0.935561 42.4799 0.705329 42.2706 0.516919C42.0612 0.328509 41.8146 0.186111 41.5468 0.0989225C41.279 0.0117335 40.9958 -0.0183093 40.7157 0.0107386ZM38.9174 13.0663C32.1839 14.9972 27.0799 17.7321 23.7339 21.2094C20.0423 25.0592 18.1716 30.0936 18.1716 36.1745V37.3134C18.1716 37.8465 18.3834 38.3578 18.7604 38.7347C19.1373 39.1117 19.6485 39.3234 20.1816 39.3234H38.301V71.6414H4.01998V47.2214C4.01998 34.0211 7.12072 23.7299 13.2364 16.6333C18.9609 9.99368 27.5945 5.84373 38.9174 4.27728V13.0663Z" fill="#0093AF" fill-opacity="0.15"/>
</svg>
