<svg width="63" height="65" viewBox="0 0 63 65" fill="none" xmlns="http://www.w3.org/2000/svg">
<g clip-path="url(#clip0_307_2309)">
<path d="M35.8747 60.0401V49.1946C35.8747 47.7231 37.0308 46.5312 38.4562 46.5312C43.5426 46.5312 46.3096 41.1491 46.6937 30.5248H38.4562C37.031 30.5248 35.8747 29.3312 35.8747 27.8613V4.96056C35.8747 3.48954 37.0308 2.29764 38.4562 2.29764H60.4183C61.8433 2.29764 63 3.49084 63 4.96056V27.8615C63 32.954 62.5017 37.6272 61.5235 41.7544C60.5186 45.9854 58.9761 49.6843 56.9398 52.7496C54.8456 55.8997 52.2236 58.3715 49.1514 60.093C46.0559 61.8255 42.4576 62.7047 38.4552 62.7047C37.031 62.7036 35.8747 61.5106 35.8747 60.0401ZM2.58098 46.5302C1.15576 46.5302 0 47.7231 0 49.1926V60.0403C0 61.5106 1.15576 62.7027 2.58098 62.7027C6.5814 62.7027 10.1815 61.8232 13.2751 60.091C16.3489 58.3697 18.9705 55.8999 21.0646 52.7476C23.1021 49.6823 24.6445 45.9832 25.6493 41.7502C26.6281 37.6229 27.1253 32.9496 27.1253 27.8593V4.95833C27.1253 3.48731 25.9684 2.29541 24.5438 2.29541H2.58098C1.15576 2.29541 0 3.48842 0 4.95833V27.8593C0 29.3301 1.15576 30.5228 2.58098 30.5228H10.7027C10.3234 41.148 7.59621 46.5302 2.58098 46.5302Z" fill="url(#paint0_linear_307_2309)"/>
</g>
<defs>
<linearGradient id="paint0_linear_307_2309" x1="63" y1="2.29541" x2="5.186" y2="67.3159" gradientUnits="userSpaceOnUse">
<stop stop-color="#496EB7"/>
<stop offset="1" stop-color="#4B1666"/>
</linearGradient>
<clipPath id="clip0_307_2309">
<rect width="63" height="65" fill="white"/>
</clipPath>
</defs>
</svg>
