<svg width="211" height="211" viewBox="0 0 211 211" fill="none" xmlns="http://www.w3.org/2000/svg">
<path d="M104.496 183.919C105.334 183.919 106.087 184.102 106.753 184.467C107.408 184.844 107.924 185.354 108.3 185.999C108.676 186.654 108.865 187.401 108.865 188.24C108.865 189.089 108.676 189.835 108.3 190.48C107.924 191.125 107.408 191.63 106.753 191.996C106.087 192.361 105.334 192.544 104.496 192.544C103.776 192.544 103.126 192.404 102.545 192.124C101.965 191.845 101.508 191.426 101.175 190.867L102.03 190.287C102.32 190.717 102.68 191.034 103.11 191.238C103.54 191.442 104.007 191.544 104.512 191.544C105.114 191.544 105.657 191.404 106.14 191.125C106.624 190.856 107.005 190.475 107.285 189.981C107.564 189.486 107.704 188.906 107.704 188.24C107.704 187.573 107.564 186.993 107.285 186.499C107.005 186.004 106.624 185.617 106.14 185.338C105.657 185.069 105.114 184.935 104.512 184.935C104.007 184.935 103.54 185.037 103.11 185.241C102.68 185.445 102.32 185.757 102.03 186.176L101.175 185.596C101.508 185.048 101.965 184.629 102.545 184.339C103.126 184.059 103.776 183.919 104.496 183.919Z" fill="white"/>
<path d="M88.0579 181.955C88.8542 182.137 89.5312 182.479 90.089 182.981C90.634 183.491 91.0181 184.102 91.2413 184.815C91.4621 185.537 91.4793 186.307 91.2927 187.125C91.1038 187.952 90.7543 188.639 90.2441 189.184C89.7339 189.728 89.1238 190.107 88.4139 190.32C87.704 190.533 86.9456 190.547 86.1389 190.363C85.3216 190.176 84.6394 189.833 84.092 189.334C83.5342 188.832 83.149 188.226 82.9362 187.516C82.713 186.803 82.6958 186.033 82.8848 185.206C83.0713 184.388 83.4208 183.702 83.9334 183.147C84.4331 182.599 85.0444 182.215 85.7672 181.994C86.4876 181.784 87.2512 181.771 88.0579 181.955ZM87.8319 182.945C87.2347 182.809 86.6758 182.819 86.155 182.976C85.6318 183.143 85.1842 183.438 84.8123 183.86C84.4275 184.29 84.1622 184.825 84.0163 185.464C83.868 186.113 83.8751 186.71 84.0375 187.254C84.1894 187.796 84.466 188.251 84.8672 188.618C85.266 188.995 85.7588 189.251 86.3455 189.385C86.9323 189.519 87.4872 189.502 88.0104 189.335C88.5312 189.178 88.9828 188.89 89.3652 188.47C89.7476 188.051 90.0129 187.516 90.1612 186.866C90.3071 186.227 90.3 185.63 90.14 185.076C89.9776 184.532 89.697 184.071 89.2981 183.693C88.8969 183.326 88.4082 183.077 87.8319 182.945Z" fill="white"/>
<path d="M71.5303 176.18C72.2565 176.53 72.8308 177.009 73.2532 177.618C73.6659 178.222 73.897 178.894 73.9464 179.634C73.9912 180.383 73.8294 181.14 73.461 181.905C73.088 182.68 72.597 183.278 71.988 183.7C71.3791 184.123 70.712 184.356 69.9869 184.401C69.2474 184.45 68.5146 184.3 67.7884 183.95C67.1203 183.629 66.5971 183.192 66.2188 182.64C65.8308 182.083 65.6218 181.44 65.5917 180.71C65.5473 179.984 65.7256 179.206 66.1266 178.373C66.5229 177.55 67.0159 176.923 67.6055 176.491C68.1951 176.059 68.8308 175.816 69.5125 175.763C70.1799 175.715 70.8525 175.854 71.5303 176.18ZM71.017 177.06C70.4748 176.799 69.9324 176.687 69.3898 176.724C68.8329 176.766 68.3261 176.951 67.8696 177.28C67.3987 177.614 67.021 178.076 66.7366 178.667C66.4475 179.267 66.3216 179.85 66.3588 180.417C66.3864 180.979 66.5598 181.486 66.8789 181.938C67.1837 182.395 67.6072 182.754 68.1494 183.015C68.6819 183.271 69.2218 183.376 69.7691 183.33C70.3117 183.293 70.8161 183.112 71.2823 182.788C71.7486 182.464 72.1262 182.002 72.4153 181.401C72.6998 180.811 72.8257 180.227 72.7931 179.651C72.7558 179.084 72.5848 178.573 72.28 178.116C71.9706 177.668 71.5496 177.317 71.017 177.06ZM68.547 174.833L67.4419 177.128L66.5989 178.618L66.0027 180.228L63.4009 185.63L62.3697 185.134L67.5594 174.357L68.547 174.833Z" fill="white"/>
<path d="M56.3507 166.607C57.0397 167.157 57.5307 167.782 57.8238 168.483C58.1102 169.193 58.1995 169.917 58.0915 170.655C57.9769 171.402 57.6582 172.104 57.1356 172.759C56.6129 173.414 56.012 173.883 55.3327 174.166C54.645 174.443 53.9436 174.529 53.2284 174.427C52.4982 174.325 51.8264 174.03 51.2131 173.541C50.5913 173.045 50.1549 172.463 49.9038 171.796C49.6376 171.13 49.5702 170.43 49.7016 169.696C49.8264 168.971 50.1534 168.277 50.6828 167.613C50.7163 167.571 50.7573 167.528 50.8059 167.484C50.8394 167.442 50.8763 167.396 50.9165 167.346L56.6761 171.939L56.1434 172.607L50.8627 168.396L51.4267 168.412C51.0448 168.891 50.8114 169.399 50.7266 169.937C50.6268 170.475 50.6695 170.991 50.8549 171.482C51.0403 171.974 51.364 172.404 51.8261 172.772C52.2799 173.134 52.7711 173.354 53.2999 173.432C53.8287 173.51 54.3447 173.44 54.8479 173.223C55.351 173.006 55.7969 172.654 56.1856 172.166L56.2961 172.028C56.6981 171.523 56.944 170.991 57.0338 170.43C57.1085 169.871 57.0355 169.325 56.8148 168.792C56.579 168.26 56.2048 167.79 55.6923 167.381C55.289 167.06 54.8581 166.833 54.3998 166.701C53.933 166.562 53.4563 166.54 52.9697 166.633L52.9279 165.651C53.5034 165.533 54.0875 165.558 54.6802 165.729C55.2645 165.892 55.8214 166.185 56.3507 166.607Z" fill="white"/>
<path d="M46.2006 157.045L41.574 164.817L40.8905 163.96L45.2191 156.797L45.5307 157.188L37.5336 159.751L36.9205 158.982L41.219 151.781L41.5305 152.172L33.5535 154.76L32.9003 153.941L41.517 151.172L42.1904 152.017L38.1871 158.838L37.976 158.573L45.5272 156.201L46.2006 157.045Z" fill="white"/>
<path d="M35.0206 140.072L27.3957 143.744L26.8991 142.713L34.524 139.041L35.0206 140.072ZM25.4592 144.033C25.5618 144.246 25.5754 144.46 25.5001 144.675C25.4248 144.89 25.2855 145.047 25.0822 145.145C24.8789 145.243 24.6744 145.252 24.4689 145.172C24.2538 145.096 24.0949 144.952 23.9923 144.739C23.8897 144.526 23.8712 144.314 23.9368 144.104C24.0025 143.893 24.1369 143.739 24.3403 143.641C24.5533 143.539 24.7674 143.525 24.9825 143.6C25.1931 143.666 25.3519 143.81 25.4592 144.033Z" fill="white"/>
<path d="M20.5337 124.412C20.3807 123.741 20.3777 123.124 20.5249 122.562C20.6591 121.991 20.9559 121.504 21.4152 121.102C21.8721 120.689 22.4987 120.392 23.295 120.21L28.0883 119.116L28.343 120.232L23.6597 121.301C22.7901 121.499 22.1855 121.869 21.8459 122.409C21.4934 122.941 21.4068 123.601 21.5862 124.386C21.7201 124.973 21.9577 125.459 22.2992 125.844C22.6277 126.221 23.0447 126.478 23.5503 126.617C24.0429 126.747 24.6036 126.74 25.2322 126.596L29.5698 125.606L29.8244 126.722L21.5736 128.605L21.3297 127.537L23.5928 127.02L23.2079 127.29C22.5509 127.164 21.989 126.852 21.5222 126.352C21.045 125.855 20.7155 125.208 20.5337 124.412Z" fill="white"/>
<path d="M30.2079 105.375C30.2079 106.149 30.095 106.89 29.8694 107.599C29.6437 108.309 29.3213 108.884 28.9022 109.324L28.0317 108.744C28.3863 108.346 28.6657 107.857 28.8699 107.277C29.0849 106.686 29.1923 106.063 29.1923 105.407C29.1923 104.332 28.9398 103.543 28.4347 103.038C27.9403 102.532 27.1666 102.28 26.1134 102.28L24.0017 102.28L22.5509 102.119L21.1001 102.232H18.537V101.135H25.9683C27.4299 101.135 28.4992 101.495 29.1762 102.215C29.864 102.925 30.2079 103.978 30.2079 105.375ZM26.6776 105.584C26.6776 106.39 26.5057 107.116 26.1618 107.761C25.8071 108.405 25.3181 108.916 24.6948 109.292C24.0715 109.657 23.3569 109.84 22.5509 109.84C21.7449 109.84 21.0356 109.657 20.423 109.292C19.7997 108.916 19.3161 108.405 18.9722 107.761C18.6283 107.116 18.4564 106.39 18.4564 105.584C18.4564 104.832 18.6122 104.155 18.9239 103.553C19.2355 102.952 19.6976 102.473 20.3102 102.119C20.9228 101.764 21.6697 101.587 22.5509 101.587C23.4321 101.587 24.179 101.764 24.7916 102.119C25.4041 102.473 25.8716 102.952 26.194 103.553C26.5164 104.155 26.6776 104.832 26.6776 105.584ZM25.662 105.472C25.662 104.848 25.5331 104.295 25.2752 103.811C25.0065 103.328 24.6411 102.946 24.179 102.667C23.7061 102.387 23.1634 102.248 22.5509 102.248C21.9383 102.248 21.401 102.387 20.9389 102.667C20.4768 102.946 20.1168 103.328 19.8588 103.811C19.5902 104.295 19.4558 104.848 19.4558 105.472C19.4558 106.084 19.5902 106.638 19.8588 107.132C20.1168 107.616 20.4768 107.997 20.9389 108.277C21.401 108.545 21.9383 108.68 22.5509 108.68C23.1634 108.68 23.7061 108.545 24.179 108.277C24.6411 107.997 25.0065 107.616 25.2752 107.132C25.5331 106.638 25.662 106.084 25.662 105.472Z" fill="white"/>
<path d="M28.8417 88.5865L17.1806 85.9249L17.4352 84.8091L29.0964 87.4707L28.8417 88.5865Z" fill="white"/>
<path d="M34.9881 71.1811C34.6057 71.975 34.1054 72.5929 33.4871 73.0347C32.8591 73.4718 32.1731 73.7199 31.4289 73.779C30.6751 73.8335 29.9206 73.6788 29.1653 73.3151C28.4101 72.9514 27.8189 72.4699 27.3919 71.8707C26.9695 71.2617 26.7289 70.5971 26.6701 69.877C26.6063 69.1426 26.7446 68.4219 27.085 67.7151C27.4301 66.9986 27.9001 66.4437 28.4951 66.0503C29.085 65.6426 29.7523 65.4212 30.4968 65.3861C31.2316 65.3464 31.9815 65.5107 32.7464 65.879C32.7948 65.9024 32.8457 65.9328 32.8991 65.9705C32.9475 65.9938 33.0008 66.0195 33.0589 66.0474L29.8625 72.6847L29.0928 72.314L32.0234 66.2286L32.1325 66.7822C31.5806 66.5164 31.0334 66.402 30.4908 66.4389C29.9432 66.4614 29.4504 66.6177 29.0125 66.9078C28.5746 67.1979 28.2274 67.6092 27.971 68.1418C27.7192 68.6646 27.6141 69.1925 27.6556 69.7254C27.6972 70.2583 27.8799 70.7459 28.2037 71.1881C28.5275 71.6303 28.9702 71.9866 29.5317 72.2571L29.6915 72.334C30.2724 72.6138 30.8462 72.735 31.4129 72.6978C31.9745 72.6462 32.4907 72.4534 32.9616 72.1196C33.4275 71.7714 33.8026 71.302 34.0871 70.7114C34.3109 70.2466 34.4361 69.7761 34.4626 69.2999C34.4939 68.814 34.41 68.3442 34.211 67.8905L35.1589 67.6313C35.4023 68.166 35.507 68.7412 35.4729 69.357C35.4434 69.963 35.2818 70.5711 34.9881 71.1811Z" fill="white"/>
<path d="M45.0831 55.4857C44.5873 56.1074 44.0373 56.4523 43.4332 56.5204C42.8291 56.5885 42.2204 56.3779 41.607 55.8888L35.3937 50.9338L36.1073 50.039L42.2702 54.9538C42.6567 55.262 43.032 55.4032 43.3962 55.3775C43.7671 55.3434 44.0999 55.1414 44.3947 54.7718C44.7096 54.3769 44.8575 53.9587 44.8384 53.5173L45.7324 53.7148C45.7513 54.0186 45.6981 54.3267 45.5727 54.639C45.454 54.943 45.2908 55.2252 45.0831 55.4857ZM36.6545 53.8774L35.9109 53.2844L39.1773 49.1884L39.9209 49.7814L36.6545 53.8774Z" fill="white"/>
<path d="M72.32 34.4396C71.6616 34.7567 70.9939 34.8934 70.3168 34.8497C69.6351 34.7963 68.9969 34.5609 68.4023 34.1435C67.8127 33.7118 67.3174 33.0796 66.9164 32.2469C66.5154 31.4142 66.3322 30.6376 66.367 29.9171C66.397 29.187 66.6061 28.5436 66.994 27.987C67.382 27.4304 67.9101 26.9912 68.5781 26.6695C69.3043 26.3198 70.0323 26.172 70.7621 26.2261C71.4969 26.2658 72.1712 26.5017 72.7848 26.9338C73.3938 27.3562 73.8824 27.9499 74.2508 28.7148C74.6238 29.4894 74.7856 30.2464 74.7362 30.9859C74.6867 31.7254 74.4508 32.3996 74.0284 33.0086C73.6157 33.6129 73.0462 34.0899 72.32 34.4396ZM69.706 39.08L64.6772 28.6375L65.6648 28.1619L66.7699 30.4567L67.4026 32.0306L68.2893 33.5002L70.7372 38.5834L69.706 39.08ZM71.8068 33.5596C72.349 33.2985 72.7748 32.9443 73.0843 32.4971C73.3891 32.0402 73.5601 31.5284 73.5974 30.9618C73.63 30.3855 73.504 29.802 73.2196 29.2114C72.9352 28.6208 72.5598 28.1634 72.0936 27.8392C71.6274 27.5151 71.1206 27.3297 70.5734 27.2831C70.0261 27.2365 69.4814 27.3438 68.9392 27.6049C68.397 27.866 67.9686 28.2274 67.6541 28.689C67.3493 29.1459 67.1783 29.6576 67.1411 30.2242C67.1135 30.7862 67.2419 31.3625 67.5264 31.9531C67.8108 32.5438 68.1836 33.0083 68.6448 33.3468C69.111 33.671 69.6178 33.8564 70.1651 33.9029C70.7173 33.9352 71.2646 33.8207 71.8068 33.5596Z" fill="white"/>
<path d="M86.4341 29.3329L84.5509 21.0821L85.6196 20.8382L86.1325 23.0855L85.9328 22.7177C86.0199 22.0365 86.2987 21.4713 86.7694 21.0222C87.2377 20.5625 87.8752 20.2407 88.6819 20.0565L88.9295 21.1409C88.8875 21.1505 88.8456 21.1601 88.8037 21.1696C88.7594 21.1687 88.7163 21.173 88.6744 21.1826C87.8048 21.3811 87.1848 21.8037 86.8143 22.4504C86.4414 23.0867 86.3662 23.892 86.5886 24.8664L87.5499 29.0782L86.4341 29.3329Z" fill="white"/>
<path d="M104.932 27V18.537H106.076V27H104.932ZM105.512 16.6671C105.276 16.6671 105.077 16.5865 104.916 16.4253C104.754 16.2641 104.674 16.0706 104.674 15.845C104.674 15.6193 104.754 15.4312 104.916 15.2808C105.077 15.1196 105.276 15.039 105.512 15.039C105.748 15.039 105.947 15.1142 106.108 15.2646C106.27 15.4151 106.35 15.6032 106.35 15.8288C106.35 16.0653 106.27 16.2641 106.108 16.4253C105.958 16.5865 105.759 16.6671 105.512 16.6671Z" fill="white"/>
<path d="M122.812 28.9324L121.033 19.8458L122.196 20.1113L123.812 28.5325L123.262 28.407L128.419 21.5318L129.52 21.7828L123.959 29.1943L122.812 28.9324Z" fill="white"/>
<path d="M141.885 35.8939L142.697 34.2092L142.786 33.9122L144.143 31.0947C144.455 30.4459 144.511 29.8587 144.311 29.3329C144.121 28.8118 143.668 28.3788 142.951 28.0337C142.457 27.7959 141.948 27.6521 141.423 27.6022C140.899 27.5523 140.416 27.5883 139.976 27.7102L139.882 26.7166C140.428 26.574 141.014 26.546 141.64 26.6329C142.271 26.71 142.886 26.8931 143.486 27.1822C144.474 27.6578 145.115 28.2708 145.41 29.021C145.719 29.7663 145.633 30.6375 145.153 31.6348L142.873 36.3695L141.885 35.8939ZM139.222 34.7006C138.65 34.4255 138.196 34.0933 137.859 33.7042C137.535 33.3101 137.342 32.8948 137.278 32.4583C137.218 32.0122 137.293 31.5713 137.503 31.1356C137.694 30.7386 137.959 30.4246 138.297 30.1937C138.649 29.9578 139.085 29.8455 139.604 29.8571C140.138 29.8636 140.767 30.0417 141.494 30.3914L144.122 31.6573L143.752 32.4271L141.152 31.1751C140.416 30.8207 139.84 30.7043 139.424 30.8259C139.017 30.9521 138.72 31.2088 138.534 31.5961C138.324 32.0318 138.326 32.462 138.539 32.8866C138.752 33.3112 139.163 33.6704 139.773 33.9642C140.354 34.244 140.916 34.3534 141.458 34.2924C142.014 34.2265 142.511 33.9884 142.947 33.5782L142.837 34.4018C142.4 34.812 141.868 35.0506 141.239 35.1176C140.62 35.1893 139.948 35.0503 139.222 34.7006Z" fill="white"/>
<path d="M155.515 45.083C154.893 44.5871 154.548 44.0372 154.48 43.4331C154.412 42.829 154.622 42.2202 155.112 41.6069L160.067 35.3936L160.961 36.1072L156.047 42.2701C155.738 42.6566 155.597 43.0319 155.623 43.3961C155.657 43.7669 155.859 44.0998 156.229 44.3946C156.624 44.7095 157.042 44.8574 157.483 44.8383L157.286 45.7323C156.982 45.7512 156.674 45.698 156.361 45.5726C156.057 45.4539 155.775 45.2907 155.515 45.083ZM157.123 36.6543L157.716 35.9108L161.812 39.1772L161.219 39.9208L157.123 36.6543Z" fill="white"/>
<path d="M167.014 56.8614C166.465 56.1724 166.125 55.4536 165.996 54.7048C165.874 53.9494 165.948 53.2236 166.218 52.5275C166.496 51.8247 166.963 51.212 167.618 50.6893C168.273 50.1667 168.964 49.843 169.689 49.7183C170.421 49.6019 171.124 49.6735 171.798 49.933C172.488 50.1942 173.077 50.6315 173.566 51.2448C174.062 51.8666 174.358 52.5308 174.454 53.2375C174.566 53.946 174.476 54.6432 174.184 55.3292C173.901 56.0085 173.428 56.6128 172.764 57.1421C172.722 57.1756 172.672 57.2083 172.615 57.2401C172.573 57.2736 172.527 57.3104 172.477 57.3507L167.884 51.591L168.551 51.0583L172.763 56.339L172.217 56.1972C172.696 55.8153 173.036 55.3719 173.238 54.867C173.456 54.3639 173.529 53.8521 173.457 53.3317C173.386 52.8113 173.166 52.32 172.797 51.8579C172.435 51.4042 172.005 51.0805 171.507 50.8867C171.009 50.6929 170.491 50.6459 169.952 50.7458C169.413 50.8457 168.9 51.0899 168.412 51.4786L168.274 51.5891C167.77 51.9911 167.411 52.4555 167.199 52.9822C167.002 53.5105 166.952 54.0593 167.048 54.6284C167.16 55.1992 167.42 55.7409 167.828 56.2534C168.15 56.6567 168.52 56.9736 168.937 57.2042C169.362 57.4432 169.821 57.5715 170.316 57.589L170.139 58.5555C169.551 58.5428 168.987 58.3875 168.447 58.0896C167.914 57.8001 167.437 57.3907 167.014 56.8614Z" fill="white"/>
<path d="M181.906 87.4777L193.567 84.8161L193.821 85.9319L182.16 88.5935L181.906 87.4777Z" fill="white"/>
<path d="M184 104.931H192.463V106.076H184V104.931ZM194.333 105.512C194.333 105.275 194.414 105.076 194.575 104.915C194.736 104.754 194.929 104.673 195.155 104.673C195.381 104.673 195.569 104.754 195.719 104.915C195.88 105.076 195.961 105.275 195.961 105.512C195.961 105.748 195.886 105.947 195.735 106.108C195.585 106.269 195.397 106.35 195.171 106.35C194.935 106.35 194.736 106.269 194.575 106.108C194.414 105.958 194.333 105.759 194.333 105.512Z" fill="white"/>
<path d="M189.458 128.826C189.305 129.496 189.041 130.048 188.667 130.481C188.301 130.926 187.825 131.225 187.239 131.378C186.65 131.541 185.958 131.532 185.161 131.35L180.368 130.256L180.623 129.141L185.306 130.21C186.176 130.408 186.878 130.348 187.414 130.029C187.958 129.723 188.316 129.193 188.488 128.439C188.617 127.873 188.609 127.353 188.464 126.879C188.327 126.418 188.059 126.021 187.661 125.687C187.271 125.367 186.762 125.135 186.133 124.992L181.796 124.002L182.05 122.886L186.734 123.955C187.603 124.153 188.306 124.093 188.842 123.774C189.388 123.458 189.747 122.923 189.919 122.168C190.046 121.613 190.037 121.098 189.891 120.624C189.757 120.153 189.49 119.75 189.092 119.417C188.702 119.096 188.193 118.864 187.565 118.721L183.227 117.731L183.482 116.615L191.732 118.498L191.489 119.567L189.257 119.058L189.689 118.974C190.229 119.362 190.603 119.872 190.812 120.504C191.028 121.148 191.049 121.853 190.875 122.618C190.691 123.425 190.33 124.064 189.792 124.537C189.265 125.012 188.579 125.241 187.734 125.225L188.007 124.824C188.622 125.218 189.065 125.765 189.335 126.466C189.613 127.18 189.654 127.967 189.458 128.826Z" fill="white"/>
<path d="M176.473 139.048L184.098 142.719L183.601 143.751L175.976 140.079L176.473 139.048ZM185.531 144.054C185.633 143.841 185.792 143.696 186.007 143.621C186.222 143.546 186.432 143.557 186.635 143.655C186.838 143.753 186.973 143.907 187.038 144.118C187.114 144.333 187.1 144.547 186.998 144.76C186.895 144.973 186.741 145.12 186.535 145.2C186.33 145.279 186.126 145.27 185.922 145.173C185.709 145.07 185.565 144.911 185.49 144.696C185.41 144.49 185.423 144.276 185.531 144.054Z" fill="white"/>
<path d="M165.917 155.514C166.413 154.893 166.963 154.548 167.567 154.48C168.171 154.412 168.78 154.622 169.393 155.111L175.606 160.066L174.893 160.961L168.73 156.046C168.343 155.738 167.968 155.597 167.604 155.622C167.233 155.657 166.9 155.859 166.605 156.228C166.29 156.623 166.142 157.041 166.162 157.483L165.268 157.285C165.249 156.981 165.302 156.673 165.427 156.361C165.546 156.057 165.709 155.775 165.917 155.514ZM174.346 157.123L175.089 157.716L171.823 161.812L171.079 161.219L174.346 157.123Z" fill="white"/>
<path d="M154.138 167.014C154.827 166.465 155.546 166.125 156.295 165.995C157.05 165.874 157.776 165.948 158.472 166.218C159.175 166.496 159.788 166.963 160.31 167.618C160.833 168.273 161.157 168.964 161.282 169.689C161.398 170.421 161.326 171.124 161.067 171.798C160.806 172.488 160.368 173.077 159.755 173.566C159.133 174.062 158.469 174.358 157.762 174.454C157.054 174.565 156.357 174.475 155.671 174.184C154.991 173.901 154.387 173.428 153.858 172.764C153.824 172.722 153.791 172.672 153.76 172.615C153.726 172.573 153.689 172.527 153.649 172.476L159.409 167.883L159.941 168.551L154.661 172.763L154.803 172.216C155.184 172.695 155.628 173.036 156.133 173.238C156.636 173.455 157.148 173.528 157.668 173.457C158.188 173.386 158.68 173.166 159.142 172.797C159.596 172.435 159.919 172.005 160.113 171.507C160.307 171.009 160.354 170.49 160.254 169.952C160.154 169.413 159.91 168.9 159.521 168.412L159.411 168.274C159.009 167.769 158.544 167.411 158.018 167.199C157.489 167.002 156.94 166.951 156.371 167.048C155.801 167.159 155.259 167.42 154.746 167.828C154.343 168.15 154.026 168.52 153.796 168.937C153.557 169.361 153.428 169.821 153.411 170.316L152.444 170.138C152.457 169.551 152.612 168.987 152.91 168.447C153.2 167.914 153.609 167.436 154.138 167.014Z" fill="white"/>
<path d="M139.58 176.127C140.307 175.777 141.039 175.627 141.779 175.676C142.509 175.73 143.178 175.969 143.787 176.391C144.401 176.823 144.892 177.422 145.26 178.187C145.633 178.961 145.795 179.718 145.745 180.458C145.696 181.197 145.463 181.864 145.045 182.459C144.623 183.068 144.049 183.547 143.322 183.897C142.654 184.219 141.986 184.355 141.319 184.307C140.642 184.263 140.009 184.026 139.419 183.594C138.824 183.176 138.327 182.551 137.926 181.719C137.529 180.896 137.346 180.119 137.376 179.389C137.406 178.659 137.613 178.011 137.996 177.444C138.375 176.892 138.903 176.453 139.58 176.127ZM139.948 177.077C139.406 177.338 138.98 177.692 138.671 178.139C138.356 178.601 138.185 179.113 138.158 179.675C138.125 180.251 138.251 180.834 138.536 181.425C138.825 182.025 139.202 182.487 139.669 182.812C140.125 183.14 140.63 183.321 141.182 183.353C141.729 183.4 142.274 183.292 142.816 183.031C143.349 182.775 143.767 182.418 144.072 181.961C144.382 181.514 144.555 181.007 144.592 180.441C144.629 179.874 144.503 179.29 144.214 178.69C143.93 178.1 143.552 177.637 143.081 177.303C142.615 176.979 142.108 176.794 141.561 176.747C141.019 176.71 140.481 176.82 139.948 177.077ZM136.667 177.619L137.772 179.914L138.412 181.502L139.299 182.972L141.9 188.375L140.869 188.871L135.679 178.095L136.667 177.619Z" fill="white"/>
</svg>
